<svg width="131" height="131" viewBox="0 0 131 131" fill="none" xmlns="http://www.w3.org/2000/svg">
<path d="M0.5 65.8335C0.5 29.9535 29.62 0.833496 65.5 0.833496C101.38 0.833496 130.5 29.9535 130.5 65.8335C130.5 101.713 101.38 130.833 65.5 130.833C29.62 130.833 0.5 101.713 0.5 65.8335Z" fill="white"/>
<g opacity="0.4" filter="url(#filter0_f_34_5374)">
<path d="M23.8999 65.8335C23.8999 42.8495 42.5159 24.2335 65.4999 24.2335C88.4839 24.2335 107.1 42.8495 107.1 65.8335C107.1 88.8175 88.4839 107.434 65.4999 107.434C42.5159 107.434 23.8999 88.8175 23.8999 65.8335Z" fill="#199ADC"/>
</g>
<path d="M6.21973 65.8335C6.21973 33.0735 32.7397 6.55347 65.4997 6.55347C98.2597 6.55347 124.78 33.0735 124.78 65.8335C124.78 98.5935 98.2597 125.113 65.4997 125.113C32.7397 125.113 6.21973 98.5935 6.21973 65.8335Z" stroke="#199ADC" stroke-dasharray="25 10"/>
<path d="M15.5801 65.8335C15.5801 38.2735 37.9401 15.9135 65.5001 15.9135C93.0601 15.9135 115.42 38.2735 115.42 65.8335C115.42 93.3934 93.0601 115.753 65.5001 115.753C37.9401 115.753 15.5801 93.3934 15.5801 65.8335Z" stroke="#199ADC" stroke-dasharray="25 10"/>
<path d="M23.8999 64.1792C23.8999 41.1952 42.5159 22.5792 65.4999 22.5792C88.4839 22.5792 107.1 41.1952 107.1 64.1792C107.1 87.1632 88.4839 105.779 65.4999 105.779C42.5159 105.779 23.8999 87.1632 23.8999 64.1792Z" fill="#199ADC"/>
<path d="M18.7002 25.6992C18.7002 23.9312 20.0522 22.5792 21.8202 22.5792C23.5882 22.5792 24.9402 23.9312 24.9402 25.6992C24.9402 27.4672 23.5882 28.8192 21.8202 28.8192C20.0522 28.8192 18.7002 27.4672 18.7002 25.6992Z" fill="#199ADC"/>
<path d="M118.54 48.2764C118.54 46.5084 119.892 45.1564 121.66 45.1564C123.428 45.1564 124.78 46.5084 124.78 48.2764C124.78 50.0444 123.428 51.3964 121.66 51.3964C119.892 51.3964 118.54 50.0444 118.54 48.2764Z" fill="#199ADC"/>
<path d="M84.2026 20.4999C84.2026 18.7319 85.5546 17.3799 87.3226 17.3799C89.0906 17.3799 90.4426 18.7319 90.4426 20.4999C90.4426 22.2679 89.0906 23.6199 87.3226 23.6199C85.5546 23.6199 84.2026 22.2679 84.2026 20.4999Z" fill="#199ADC"/>
<path d="M15.5801 82.4735C15.5801 80.7055 16.9321 79.3535 18.7001 79.3535C20.4681 79.3535 21.8201 80.7055 21.8201 82.4735C21.8201 84.2415 20.4681 85.5935 18.7001 85.5935C16.9321 85.5935 15.5801 84.2415 15.5801 82.4735Z" fill="#199ADC"/>
<path d="M50.5737 123.334C50.5737 121.566 51.9257 120.214 53.6937 120.214C55.4617 120.214 56.8137 121.566 56.8137 123.334C56.8137 125.102 55.4617 126.454 53.6937 126.454C51.9257 126.454 50.5737 125.102 50.5737 123.334Z" fill="#199ADC"/>
<path d="M110.194 82.3521C110.194 80.5841 111.546 79.2321 113.314 79.2321C115.082 79.2321 116.434 80.5841 116.434 82.3521C116.434 84.1201 115.082 85.4721 113.314 85.4721C111.546 85.4721 110.194 84.1201 110.194 82.3521Z" fill="#199ADC"/>
<path d="M79.864 51.1211H77.9053V47.2037C77.9043 46.3382 77.56 45.5085 76.9481 44.8965C76.3361 44.2845 75.5063 43.9402 74.6408 43.9392H56.3595C55.494 43.9402 54.6643 44.2845 54.0523 44.8965C53.4403 45.5085 53.096 46.3382 53.095 47.2037V51.1211H51.1363C50.9631 51.1211 50.7971 51.1899 50.6746 51.3124C50.5522 51.4348 50.4834 51.6009 50.4834 51.774V72.014C50.4834 72.1872 50.5522 72.3533 50.6746 72.4757C50.7971 72.5982 50.9631 72.667 51.1363 72.667H53.095V81.1547C53.096 82.0202 53.4403 82.8499 54.0523 83.4619C54.6643 84.0739 55.494 84.4182 56.3595 84.4192H74.6408C75.5063 84.4182 76.3361 84.0739 76.9481 83.4619C77.56 82.8499 77.9043 82.0202 77.9053 81.1547V72.667H79.864C80.0372 72.667 80.2033 72.5982 80.3257 72.4757C80.4482 72.3533 80.5169 72.1872 80.5169 72.014V51.774C80.5169 51.6009 80.4482 51.4348 80.3257 51.3124C80.2033 51.1899 80.0372 51.1211 79.864 51.1211ZM54.4008 47.2037C54.4014 46.6844 54.6079 46.1865 54.9751 45.8193C55.3423 45.4521 55.8402 45.2456 56.3595 45.245H74.6408C75.1601 45.2456 75.658 45.4521 76.0252 45.8193C76.3924 46.1865 76.599 46.6844 76.5995 47.2037V51.1211H54.4008V47.2037ZM51.7892 52.427H79.2111V56.3444H51.7892V52.427ZM76.5995 81.1547C76.599 81.674 76.3924 82.1719 76.0252 82.5391C75.658 82.9063 75.1601 83.1128 74.6408 83.1134H56.3595C55.8402 83.1128 55.3423 82.9063 54.9751 82.5391C54.6079 82.1719 54.4014 81.674 54.4008 81.1547V77.8902H76.5995V81.1547ZM76.5995 76.5844H54.4008V72.667H76.5995V76.5844ZM79.2111 71.3611H51.7892V57.6502H79.2111V71.3611Z" fill="white"/>
<path d="M77.2525 55.0386C77.6131 55.0386 77.9054 54.7463 77.9054 54.3857C77.9054 54.0251 77.6131 53.7328 77.2525 53.7328C76.8919 53.7328 76.5996 54.0251 76.5996 54.3857C76.5996 54.7463 76.8919 55.0386 77.2525 55.0386Z" fill="white"/>
<path d="M74.6407 55.0386C75.0013 55.0386 75.2936 54.7463 75.2936 54.3857C75.2936 54.0251 75.0013 53.7328 74.6407 53.7328C74.2801 53.7328 73.9878 54.0251 73.9878 54.3857C73.9878 54.7463 74.2801 55.0386 74.6407 55.0386Z" fill="white"/>
<path d="M72.0294 55.0386C72.39 55.0386 72.6823 54.7463 72.6823 54.3857C72.6823 54.0251 72.39 53.7328 72.0294 53.7328C71.6688 53.7328 71.3765 54.0251 71.3765 54.3857C71.3765 54.7463 71.6688 55.0386 72.0294 55.0386Z" fill="white"/>
<path d="M65.5002 82.4605C65.8876 82.4605 66.2663 82.3456 66.5884 82.1304C66.9105 81.9152 67.1616 81.6093 67.3098 81.2514C67.4581 80.8935 67.4969 80.4996 67.4213 80.1197C67.3457 79.7397 67.1592 79.3907 66.8852 79.1168C66.6113 78.8429 66.2623 78.6563 65.8823 78.5807C65.5024 78.5052 65.1086 78.5439 64.7506 78.6922C64.3927 78.8404 64.0868 79.0915 63.8716 79.4136C63.6564 79.7357 63.5415 80.1144 63.5415 80.5018C63.5421 81.0211 63.7486 81.519 64.1158 81.8862C64.483 82.2534 64.9809 82.4599 65.5002 82.4605ZM65.5002 79.8489C65.6293 79.8489 65.7556 79.8872 65.8629 79.9589C65.9703 80.0307 66.054 80.1326 66.1034 80.2519C66.1528 80.3712 66.1658 80.5025 66.1406 80.6292C66.1154 80.7558 66.0532 80.8722 65.9619 80.9635C65.8706 81.0548 65.7542 81.117 65.6276 81.1422C65.5009 81.1674 65.3697 81.1544 65.2504 81.105C65.1311 81.0556 65.0291 80.9719 64.9573 80.8645C64.8856 80.7572 64.8473 80.6309 64.8473 80.5018C64.8474 80.3287 64.9162 80.1627 65.0387 80.0402C65.1611 79.9178 65.3271 79.849 65.5002 79.8489Z" fill="white"/>
<path d="M70.7232 81.1547H73.3348C73.508 81.1547 73.6741 81.0859 73.7965 80.9635C73.9189 80.841 73.9877 80.6749 73.9877 80.5018C73.9877 80.3286 73.9189 80.1626 73.7965 80.0401C73.6741 79.9177 73.508 79.8489 73.3348 79.8489H70.7232C70.5501 79.8489 70.384 79.9177 70.2615 80.0401C70.1391 80.1626 70.0703 80.3286 70.0703 80.5018C70.0703 80.6749 70.1391 80.841 70.2615 80.9635C70.384 81.0859 70.5501 81.1547 70.7232 81.1547Z" fill="white"/>
<path d="M57.6651 81.1547H60.2767C60.4499 81.1547 60.616 81.0859 60.7384 80.9635C60.8608 80.841 60.9296 80.6749 60.9296 80.5018C60.9296 80.3286 60.8608 80.1626 60.7384 80.0401C60.616 79.9177 60.4499 79.8489 60.2767 79.8489H57.6651C57.4919 79.8489 57.3259 79.9177 57.2034 80.0401C57.081 80.1626 57.0122 80.3286 57.0122 80.5018C57.0122 80.6749 57.081 80.841 57.2034 80.9635C57.3259 81.0859 57.4919 81.1547 57.6651 81.1547Z" fill="white"/>
<path d="M68.112 46.5508H62.8887C62.7156 46.5508 62.5495 46.6196 62.4271 46.7421C62.3046 46.8645 62.2358 47.0306 62.2358 47.2037C62.2358 47.3769 62.3046 47.543 62.4271 47.6654C62.5495 47.7879 62.7156 47.8566 62.8887 47.8566H68.112C68.2851 47.8566 68.4512 47.7879 68.5736 47.6654C68.6961 47.543 68.7649 47.3769 68.7649 47.2037C68.7649 47.0306 68.6961 46.8645 68.5736 46.7421C68.4512 46.6196 68.2851 46.5508 68.112 46.5508Z" fill="white"/>
<path d="M70.7232 47.8566C71.0838 47.8566 71.3761 47.5643 71.3761 47.2037C71.3761 46.8432 71.0838 46.5508 70.7232 46.5508C70.3626 46.5508 70.0703 46.8432 70.0703 47.2037C70.0703 47.5643 70.3626 47.8566 70.7232 47.8566Z" fill="white"/>
<path d="M60.1417 67.9054C60.2649 68.0243 60.4298 68.0901 60.601 68.0886C60.7722 68.0871 60.9359 68.0185 61.057 67.8974C61.178 67.7763 61.2467 67.6126 61.2482 67.4414C61.2497 67.2702 61.1838 67.1053 61.0649 66.9821L58.2621 64.1792L61.0649 61.3763C61.1838 61.2532 61.2497 61.0883 61.2482 60.9171C61.2467 60.7459 61.178 60.5821 61.057 60.4611C60.9359 60.34 60.7722 60.2713 60.601 60.2699C60.4298 60.2684 60.2649 60.3342 60.1417 60.4531L56.8772 63.7176C56.7548 63.8401 56.686 64.0061 56.686 64.1792C56.686 64.3524 56.7548 64.5184 56.8772 64.6408L60.1417 67.9054Z" fill="white"/>
<path d="M69.9353 67.9054C70.0577 68.0278 70.2238 68.0965 70.3969 68.0965C70.57 68.0965 70.7361 68.0278 70.8585 67.9054L74.123 64.6408C74.2454 64.5184 74.3142 64.3524 74.3142 64.1792C74.3142 64.0061 74.2454 63.8401 74.123 63.7176L70.8585 60.4531C70.7354 60.3342 70.5704 60.2684 70.3993 60.2699C70.2281 60.2713 70.0643 60.34 69.9433 60.4611C69.8222 60.5821 69.7535 60.7459 69.752 60.9171C69.7506 61.0883 69.8164 61.2532 69.9353 61.3763L72.7381 64.1792L69.9353 66.9821C69.8129 67.1046 69.7441 67.2706 69.7441 67.4437C69.7441 67.6169 69.8129 67.7829 69.9353 67.9054Z" fill="white"/>
<path d="M63.2841 69.3498C63.3629 69.3836 63.4476 69.4016 63.5334 69.4026C63.6191 69.4037 63.7043 69.3878 63.7839 69.356C63.8635 69.3241 63.9361 69.2769 63.9975 69.217C64.0589 69.157 64.1078 69.0856 64.1416 69.0068L68.059 59.8661C68.1272 59.7069 68.1294 59.5271 68.0651 59.3663C68.0008 59.2055 67.8752 59.0768 67.716 59.0086C67.5568 58.9404 67.377 58.9382 67.2162 59.0025C67.0554 59.0669 66.9267 59.1924 66.8585 59.3516L62.941 68.4923C62.9072 68.5711 62.8893 68.6558 62.8882 68.7416C62.8872 68.8274 62.903 68.9125 62.9349 68.9921C62.9667 69.0718 63.014 69.1443 63.0739 69.2057C63.1338 69.2671 63.2052 69.316 63.2841 69.3498Z" fill="white"/>
<defs>
<filter id="filter0_f_34_5374" x="11.8999" y="12.2335" width="107.2" height="107.2" filterUnits="userSpaceOnUse" color-interpolation-filters="sRGB">
<feFlood flood-opacity="0" result="BackgroundImageFix"/>
<feBlend mode="normal" in="SourceGraphic" in2="BackgroundImageFix" result="shape"/>
<feGaussianBlur stdDeviation="6" result="effect1_foregroundBlur_34_5374"/>
</filter>
</defs>
</svg>
