<svg width="131" height="131" viewBox="0 0 131 131" fill="none" xmlns="http://www.w3.org/2000/svg">
<path d="M0.5 65.8335C0.5 29.9535 29.62 0.833496 65.5 0.833496C101.38 0.833496 130.5 29.9535 130.5 65.8335C130.5 101.713 101.38 130.833 65.5 130.833C29.62 130.833 0.5 101.713 0.5 65.8335Z" fill="white"/>
<g opacity="0.4" filter="url(#filter0_f_34_5345)">
<path d="M23.8999 65.8335C23.8999 42.8495 42.5159 24.2335 65.4999 24.2335C88.4839 24.2335 107.1 42.8495 107.1 65.8335C107.1 88.8175 88.4839 107.434 65.4999 107.434C42.5159 107.434 23.8999 88.8175 23.8999 65.8335Z" fill="#35D453"/>
</g>
<path d="M6.21973 65.8335C6.21973 33.0735 32.7397 6.55347 65.4997 6.55347C98.2597 6.55347 124.78 33.0735 124.78 65.8335C124.78 98.5935 98.2597 125.113 65.4997 125.113C32.7397 125.113 6.21973 98.5935 6.21973 65.8335Z" stroke="#35D453" stroke-dasharray="25 10"/>
<path d="M15.5801 65.8335C15.5801 38.2735 37.9401 15.9135 65.5001 15.9135C93.0601 15.9135 115.42 38.2735 115.42 65.8335C115.42 93.3934 93.0601 115.753 65.5001 115.753C37.9401 115.753 15.5801 93.3934 15.5801 65.8335Z" stroke="#35D453" stroke-dasharray="25 10"/>
<path d="M23.8999 64.1792C23.8999 41.1952 42.5159 22.5792 65.4999 22.5792C88.4839 22.5792 107.1 41.1952 107.1 64.1792C107.1 87.1632 88.4839 105.779 65.4999 105.779C42.5159 105.779 23.8999 87.1632 23.8999 64.1792Z" fill="#35D453"/>
<path d="M18.7002 25.6992C18.7002 23.9312 20.0522 22.5792 21.8202 22.5792C23.5882 22.5792 24.9402 23.9312 24.9402 25.6992C24.9402 27.4672 23.5882 28.8192 21.8202 28.8192C20.0522 28.8192 18.7002 27.4672 18.7002 25.6992Z" fill="#35D453"/>
<path d="M118.54 48.2764C118.54 46.5084 119.892 45.1564 121.66 45.1564C123.428 45.1564 124.78 46.5084 124.78 48.2764C124.78 50.0444 123.428 51.3964 121.66 51.3964C119.892 51.3964 118.54 50.0444 118.54 48.2764Z" fill="#35D453"/>
<path d="M84.2026 20.4999C84.2026 18.7319 85.5546 17.3799 87.3226 17.3799C89.0906 17.3799 90.4426 18.7319 90.4426 20.4999C90.4426 22.2679 89.0906 23.6199 87.3226 23.6199C85.5546 23.6199 84.2026 22.2679 84.2026 20.4999Z" fill="#35D453"/>
<path d="M15.5801 82.4735C15.5801 80.7055 16.9321 79.3535 18.7001 79.3535C20.4681 79.3535 21.8201 80.7055 21.8201 82.4735C21.8201 84.2415 20.4681 85.5935 18.7001 85.5935C16.9321 85.5935 15.5801 84.2415 15.5801 82.4735Z" fill="#35D453"/>
<path d="M50.5737 123.334C50.5737 121.566 51.9257 120.214 53.6937 120.214C55.4617 120.214 56.8137 121.566 56.8137 123.334C56.8137 125.102 55.4617 126.454 53.6937 126.454C51.9257 126.454 50.5737 125.102 50.5737 123.334Z" fill="#35D453"/>
<path d="M110.194 82.3521C110.194 80.5841 111.546 79.2321 113.314 79.2321C115.082 79.2321 116.434 80.5841 116.434 82.3521C116.434 84.1201 115.082 85.4721 113.314 85.4721C111.546 85.4721 110.194 84.1201 110.194 82.3521Z" fill="#35D453"/>
<path d="M52.0248 47.5271C50.4772 47.5271 49.2183 48.7857 49.2183 50.3325C49.2183 51.8794 50.4772 53.138 52.0248 53.138C53.5735 53.138 54.8336 51.8794 54.8336 50.3325C54.8336 48.7857 53.5735 47.5271 52.0248 47.5271ZM52.0248 51.4648C51.3998 51.4648 50.8915 50.9569 50.8915 50.3325C50.8915 49.7082 51.3998 49.2003 52.0248 49.2003C52.6509 49.2003 53.1605 49.7083 53.1605 50.3326C53.1605 50.957 52.6509 51.4648 52.0248 51.4648Z" fill="white"/>
<path d="M76.5638 47.5271H69.1449C67.5974 47.5271 66.3384 48.7857 66.3384 50.3325C66.3384 51.8794 67.5974 53.138 69.1449 53.138H76.5638C78.1114 53.138 79.3703 51.8794 79.3703 50.3325C79.3703 48.7857 78.1114 47.5271 76.5638 47.5271ZM76.5638 51.4648H69.1449C68.52 51.4648 68.0116 50.9569 68.0116 50.3325C68.0116 49.7082 68.52 49.2002 69.1449 49.2002H76.5638C77.1888 49.2002 77.6971 49.7082 77.6971 50.3325C77.6971 50.9569 77.1888 51.4648 76.5638 51.4648Z" fill="white"/>
<path d="M59.2977 47.5271C57.7502 47.5271 56.4912 48.7857 56.4912 50.3325C56.4912 51.8794 57.7502 53.138 59.2977 53.138C60.8465 53.138 62.1065 51.8794 62.1065 50.3325C62.1065 48.7857 60.8465 47.5271 59.2977 47.5271ZM59.2977 51.4648C58.6728 51.4648 58.1644 50.9569 58.1644 50.3325C58.1644 49.7082 58.6729 49.2002 59.2977 49.2002C59.9239 49.2002 60.4334 49.7082 60.4334 50.3325C60.4334 50.9569 59.9239 51.4648 59.2977 51.4648Z" fill="white"/>
<path d="M57.9336 61.3956C57.4843 61.288 57.0328 61.5653 56.9254 62.0148L55.2658 68.9599C55.1584 69.4093 55.4356 69.8607 55.885 69.968C55.9503 69.9836 56.0158 69.9912 56.0802 69.9912C56.4584 69.9912 56.8013 69.7329 56.8931 69.3488L58.5528 62.4037C58.6602 61.9543 58.383 61.503 57.9336 61.3956Z" fill="white"/>
<path d="M61.0048 69.1519C61.1643 69.2939 61.363 69.3638 61.561 69.3638C61.7914 69.3638 62.0207 69.2692 62.1861 69.0836L64.532 66.4502C64.9191 66.0193 64.9191 65.3445 64.5344 64.9163L62.186 62.2801C61.8786 61.935 61.3497 61.9047 61.0048 62.2119C60.6597 62.5192 60.6292 63.0481 60.9366 63.393L62.9754 65.6818L60.9366 67.9706C60.6293 68.3158 60.6598 68.8446 61.0048 69.1519Z" fill="white"/>
<path d="M52.814 62.2118C52.4688 61.9044 51.9401 61.9352 51.6328 62.2801L49.2871 64.9133C48.8995 65.3442 48.8995 66.0194 49.2845 66.4474L51.6329 69.0835C51.7982 69.2692 52.0275 69.3637 52.258 69.3637C52.4559 69.3637 52.6548 69.2938 52.8141 69.1518C53.1592 68.8445 53.1898 68.3156 52.8824 67.9706L50.8435 65.6819L52.8824 63.393C53.1896 63.0479 53.1591 62.5191 52.814 62.2118Z" fill="white"/>
<path d="M84.8621 71.1091H84.5515C84.3888 70.5821 84.178 70.0734 83.9209 69.5873L84.1425 69.3649C84.4965 69.0131 84.6919 68.5433 84.6926 68.042C84.6934 67.5396 84.4987 67.0679 84.1443 66.7136L83.7124 66.282V48.4623C83.7124 45.967 81.9515 43.937 79.7869 43.937H48.1882C46.0236 43.937 44.2627 45.967 44.2627 48.4623V71.8446C44.2627 74.3399 46.0236 76.3699 48.1882 76.3699H53.0965C53.5585 76.3699 53.9331 75.9954 53.9331 75.5334C53.9331 75.0714 53.5585 74.6968 53.0965 74.6968H48.1882C46.9673 74.6968 45.9359 73.3906 45.9359 71.8447V56.667H82.0391V65.1209C81.9438 65.1063 81.8472 65.0966 81.7489 65.0966C81.7479 65.0966 81.7469 65.0966 81.746 65.0966C81.2448 65.0975 80.775 65.2926 80.4259 65.6436L80.1997 65.8687C79.7034 65.6065 79.1865 65.3932 78.6535 65.2304V64.9324C78.6535 63.8984 77.8121 63.0573 76.7778 63.0573H75.2639C74.231 63.0573 73.3907 63.8984 73.3907 64.9324V65.2508C72.8677 65.4151 72.3628 65.6266 71.8801 65.8834L71.6634 65.6674C71.3115 65.3137 70.8416 65.1185 70.3404 65.1177C70.3395 65.1177 70.3386 65.1177 70.3376 65.1177C69.8362 65.1177 69.3655 65.3122 69.0119 65.6657L67.9423 66.7347C67.5879 67.089 67.3932 67.5608 67.3939 68.0631C67.3947 68.5643 67.59 69.0341 67.9413 69.3832L68.1723 69.6149C67.9215 70.0936 67.7156 70.5929 67.5562 71.1089H67.2385C66.2055 71.1089 65.3652 71.949 65.3652 72.9817V74.4971C65.3652 74.5644 65.3689 74.631 65.3759 74.6965H60.5082C60.0462 74.6965 59.6717 75.0711 59.6717 75.5331C59.6717 75.9951 60.0462 76.3696 60.5082 76.3696H67.2384H67.5593C67.7211 76.8905 67.9303 77.3938 68.1854 77.8757L67.9593 78.1007C67.2315 78.8324 67.2322 80.0203 67.961 80.7486L69.0312 81.8184C69.3831 82.172 69.853 82.3673 70.3542 82.3681H70.357C70.8584 82.3681 71.3291 82.1735 71.6827 81.82L71.9068 81.5961C72.393 81.8524 72.8984 82.0618 73.4187 82.2226V82.5464C73.4187 83.5804 74.259 84.4215 75.292 84.4215H76.8083C77.8412 84.4215 78.6815 83.5804 78.6815 82.5464V82.2246C79.2067 82.0626 79.7143 81.8524 80.1998 81.596L80.4229 81.8183C80.7747 82.172 81.2445 82.3672 81.7458 82.3681H81.7487C82.25 82.3681 82.7207 82.1735 83.075 81.8194L84.1423 80.7504C84.4963 80.3985 84.6916 79.9287 84.6924 79.4275C84.6931 78.9251 84.4984 78.4534 84.1439 78.0991L83.9207 77.8759C84.1753 77.3937 84.3843 76.89 84.5458 76.3697H84.862C85.8962 76.3697 86.7376 75.5297 86.7376 74.4971V72.9817C86.7377 71.9491 85.8964 71.1091 84.8621 71.1091ZM45.9359 54.9938V48.4623C45.9359 46.9164 46.9673 45.6102 48.1882 45.6102H79.7869C81.0078 45.6102 82.0392 46.9164 82.0392 48.4623V54.9939L45.9359 54.9938ZM85.0645 74.4972C85.0645 74.6035 84.97 74.6967 84.862 74.6967H83.9054C83.5153 74.6967 83.177 74.9662 83.0899 75.3464C82.9092 76.1349 82.5988 76.8827 82.1674 77.5692C81.9596 77.8998 82.0081 78.3302 82.2843 78.6062L82.9613 79.2827C83.0119 79.3333 83.0194 79.3937 83.0194 79.4253C83.0193 79.4629 83.0095 79.5176 82.9606 79.566L81.8918 80.6368C81.8411 80.6874 81.7806 80.695 81.7488 80.695C81.7487 80.695 81.7486 80.695 81.7486 80.695C81.7106 80.695 81.6558 80.6852 81.6067 80.6358L80.9273 79.9592C80.651 79.684 80.2214 79.6363 79.8915 79.8437C79.204 80.2762 78.453 80.587 77.6594 80.7676C77.2787 80.8544 77.0085 81.1929 77.0085 81.5834V82.5467C77.0085 82.6542 76.915 82.7486 76.8085 82.7486H75.2922C75.1856 82.7486 75.0921 82.6543 75.0921 82.5467V81.581C75.0921 81.1901 74.8213 80.8512 74.4401 80.765C73.6565 80.5878 72.9069 80.2775 72.2122 79.8428C72.0753 79.7571 71.9215 79.7153 71.7686 79.7153C71.5525 79.7153 71.3383 79.7988 71.1769 79.9603L70.5001 80.6368C70.4494 80.6874 70.3889 80.695 70.3571 80.695C70.357 80.695 70.3569 80.695 70.3568 80.695C70.3189 80.695 70.264 80.6852 70.2159 80.6369L69.144 79.5654C69.069 79.4905 69.0698 79.3576 69.143 79.2839L69.8224 78.6073C70.1 78.3309 70.1485 77.899 69.9394 77.5678C69.5072 76.8835 69.1965 76.1363 69.0156 75.3466C68.9285 74.9664 68.5902 74.6968 68.2 74.6968H67.2385C67.1301 74.6968 67.0384 74.6055 67.0384 74.4974V72.982C67.0384 72.8739 67.1301 72.7825 67.2385 72.7825H68.1976C68.5881 72.7825 68.9268 72.5123 69.0135 72.1316C69.192 71.347 69.4988 70.6028 69.9253 69.9194C70.1312 69.5895 70.0825 69.1611 69.8079 68.8857L69.1235 68.1993C69.077 68.1532 69.0672 68.0985 69.0671 68.0609C69.0671 68.0293 69.0746 67.9689 69.1252 67.9184L70.1947 66.8494C70.2454 66.7988 70.3059 66.7912 70.3377 66.7912H70.338C70.3759 66.7912 70.4308 66.801 70.4798 66.8504L71.1545 67.5224C71.4316 67.7984 71.8628 67.8457 72.1928 67.6363C72.8764 67.2029 73.6251 66.889 74.418 66.7034C74.7963 66.6149 75.0638 66.2774 75.0638 65.8888V64.9326C75.0638 64.8232 75.1554 64.7307 75.2638 64.7307H76.7778C76.8875 64.7307 76.9803 64.8232 76.9803 64.9326V65.8747C76.9803 66.2667 77.2524 66.6061 77.6351 66.6913C78.4311 66.8686 79.1905 67.1817 79.8922 67.6219C80.222 67.8286 80.6511 67.7809 80.9272 67.5059L81.6094 66.8265C81.6557 66.78 81.7105 66.7702 81.7484 66.7701H81.7487C81.7805 66.7701 81.841 66.7777 81.8916 66.8283L82.9612 67.8973C83.0118 67.9479 83.0193 68.0083 83.0193 68.0398C83.0192 68.0774 83.0094 68.1321 82.9602 68.181L82.2832 68.86C82.0075 69.1365 81.9597 69.5669 82.168 69.8971C82.6012 70.5837 82.9128 71.3357 83.0943 72.1319C83.181 72.5125 83.5195 72.7826 83.91 72.7826H84.862C84.9699 72.7826 85.0645 72.8759 85.0645 72.9821V74.4972Z" fill="white"/>
<path d="M76.0516 68.6302C73.2325 68.6302 70.939 70.9227 70.939 73.7406C70.939 76.5572 73.2325 78.8486 76.0516 78.8486C78.8694 78.8486 81.1618 76.5572 81.1618 73.7406C81.1618 70.9228 78.8694 68.6302 76.0516 68.6302ZM76.0516 77.1754C74.1551 77.1754 72.6122 75.6346 72.6122 73.7406C72.6122 71.8453 74.1551 70.3035 76.0516 70.3035C77.9468 70.3035 79.4886 71.8453 79.4886 73.7406C79.4886 75.6346 77.9467 77.1754 76.0516 77.1754Z" fill="white"/>
<path d="M56.8271 74.6967H56.8107C56.3487 74.6967 55.9741 75.0713 55.9741 75.5333C55.9741 75.9953 56.3487 76.3698 56.8107 76.3698H56.8271C57.2891 76.3698 57.6637 75.9953 57.6637 75.5333C57.6637 75.0713 57.2891 74.6967 56.8271 74.6967Z" fill="white"/>
<defs>
<filter id="filter0_f_34_5345" x="11.8999" y="12.2335" width="107.2" height="107.2" filterUnits="userSpaceOnUse" color-interpolation-filters="sRGB">
<feFlood flood-opacity="0" result="BackgroundImageFix"/>
<feBlend mode="normal" in="SourceGraphic" in2="BackgroundImageFix" result="shape"/>
<feGaussianBlur stdDeviation="6" result="effect1_foregroundBlur_34_5345"/>
</filter>
</defs>
</svg>
