<svg width="131" height="131" viewBox="0 0 131 131" fill="none" xmlns="http://www.w3.org/2000/svg">
<path d="M0.5 65.8335C0.5 29.9535 29.62 0.833496 65.5 0.833496C101.38 0.833496 130.5 29.9535 130.5 65.8335C130.5 101.713 101.38 130.833 65.5 130.833C29.62 130.833 0.5 101.713 0.5 65.8335Z" fill="white"/>
<g opacity="0.4" filter="url(#filter0_f_34_5406)">
<path d="M23.8999 65.8335C23.8999 42.8495 42.5159 24.2335 65.4999 24.2335C88.4839 24.2335 107.1 42.8495 107.1 65.8335C107.1 88.8175 88.4839 107.434 65.4999 107.434C42.5159 107.434 23.8999 88.8175 23.8999 65.8335Z" fill="#35D453"/>
</g>
<path d="M6.21973 65.8335C6.21973 33.0735 32.7397 6.55347 65.4997 6.55347C98.2597 6.55347 124.78 33.0735 124.78 65.8335C124.78 98.5935 98.2597 125.113 65.4997 125.113C32.7397 125.113 6.21973 98.5935 6.21973 65.8335Z" stroke="#35D453" stroke-dasharray="25 10"/>
<path d="M15.5801 65.8335C15.5801 38.2735 37.9401 15.9135 65.5001 15.9135C93.0601 15.9135 115.42 38.2735 115.42 65.8335C115.42 93.3934 93.0601 115.753 65.5001 115.753C37.9401 115.753 15.5801 93.3934 15.5801 65.8335Z" stroke="#35D453" stroke-dasharray="25 10"/>
<path d="M23.8999 64.1792C23.8999 41.1952 42.5159 22.5792 65.4999 22.5792C88.4839 22.5792 107.1 41.1952 107.1 64.1792C107.1 87.1632 88.4839 105.779 65.4999 105.779C42.5159 105.779 23.8999 87.1632 23.8999 64.1792Z" fill="#35D453"/>
<path d="M18.7002 25.6992C18.7002 23.9312 20.0522 22.5792 21.8202 22.5792C23.5882 22.5792 24.9402 23.9312 24.9402 25.6992C24.9402 27.4672 23.5882 28.8192 21.8202 28.8192C20.0522 28.8192 18.7002 27.4672 18.7002 25.6992Z" fill="#35D453"/>
<path d="M118.54 48.2764C118.54 46.5084 119.892 45.1564 121.66 45.1564C123.428 45.1564 124.78 46.5084 124.78 48.2764C124.78 50.0444 123.428 51.3964 121.66 51.3964C119.892 51.3964 118.54 50.0444 118.54 48.2764Z" fill="#35D453"/>
<path d="M84.2026 20.4999C84.2026 18.7319 85.5546 17.3799 87.3226 17.3799C89.0906 17.3799 90.4426 18.7319 90.4426 20.4999C90.4426 22.2679 89.0906 23.6199 87.3226 23.6199C85.5546 23.6199 84.2026 22.2679 84.2026 20.4999Z" fill="#35D453"/>
<path d="M15.5801 82.4735C15.5801 80.7055 16.9321 79.3535 18.7001 79.3535C20.4681 79.3535 21.8201 80.7055 21.8201 82.4735C21.8201 84.2415 20.4681 85.5935 18.7001 85.5935C16.9321 85.5935 15.5801 84.2415 15.5801 82.4735Z" fill="#35D453"/>
<path d="M50.5737 123.334C50.5737 121.566 51.9257 120.214 53.6937 120.214C55.4617 120.214 56.8137 121.566 56.8137 123.334C56.8137 125.102 55.4617 126.454 53.6937 126.454C51.9257 126.454 50.5737 125.102 50.5737 123.334Z" fill="#35D453"/>
<path d="M110.194 82.3521C110.194 80.5841 111.546 79.2321 113.314 79.2321C115.082 79.2321 116.434 80.5841 116.434 82.3521C116.434 84.1201 115.082 85.4721 113.314 85.4721C111.546 85.4721 110.194 84.1201 110.194 82.3521Z" fill="#35D453"/>
<mask id="path-12-outside-1_34_5406" maskUnits="userSpaceOnUse" x="44.2598" y="42.9392" width="42" height="42" fill="black">
<rect fill="white" x="44.2598" y="42.9392" width="42" height="42"/>
<path d="M67.536 79.6353C67.536 79.8784 67.3389 80.0753 67.096 80.0753H63.7816C63.5386 80.0753 63.3416 79.8784 63.3416 79.6353C63.3416 79.3923 63.5386 79.1953 63.7816 79.1953H67.096C67.3389 79.1953 67.536 79.3923 67.536 79.6353ZM85.7399 76.3187V81.3774C85.7399 83.0547 84.3752 84.4192 82.698 84.4192H73.1457C72.0054 84.4192 71.0101 83.7882 70.4894 82.8572H59.5326C57.3232 82.8572 55.5257 81.0597 55.5257 78.8504V66.6499H53.1955C52.9526 66.6499 52.7555 66.453 52.7555 66.2099V55.3844H48.3784C46.6587 55.3844 45.2598 53.9854 45.2598 52.2658V47.0578C45.2598 45.3381 46.6587 43.9392 48.3783 43.9392H58.0126C59.7322 43.9392 61.1312 45.3381 61.1312 47.0578V49.683H71.3448C72.6877 49.683 73.9383 50.3689 74.6763 51.4711L79.7025 46.4448C79.8744 46.273 80.153 46.273 80.3248 46.4448L82.3059 48.4259C82.3885 48.5084 82.4348 48.6203 82.4348 48.737C82.4348 48.8537 82.3885 48.9656 82.306 49.0481L75.3518 56.0024V70.2581H77.9218C78.1648 70.2581 78.3618 70.4551 78.3618 70.6981V73.2771H82.698C84.3752 73.2769 85.7399 74.6415 85.7399 76.3187ZM75.3518 71.138V73.2769H77.4818V71.138H75.3518ZM69.0405 58.3513L68.4232 60.3275L70.3994 59.7102L81.3727 48.7369L80.0138 47.3782L69.0405 58.3513ZM69.1085 61.0354L67.8841 61.4178C67.841 61.4313 67.7968 61.4379 67.753 61.4379C67.638 61.4379 67.5256 61.3927 67.4418 61.309C67.3261 61.1933 67.2841 61.0229 67.3329 60.8667L67.7792 59.4382C67.0986 58.9554 66.2785 58.6917 65.4388 58.6917C63.3569 58.6917 61.6373 60.2726 61.4173 62.2969H69.4602C69.4124 61.8595 69.2929 61.4331 69.1085 61.0354ZM65.4387 57.8116C66.4039 57.8116 67.1892 57.0264 67.1892 56.0612C67.1892 55.096 66.4039 54.3108 65.4387 54.3108C64.4736 54.3108 63.6884 55.096 63.6884 56.0612C63.6884 57.0264 64.4736 57.8116 65.4387 57.8116ZM48.3783 54.5044H58.0126C59.247 54.5044 60.2512 53.5002 60.2512 52.2659V47.0578C60.2512 45.8235 59.247 44.8192 58.0126 44.8192H48.3783C47.144 44.8192 46.1398 45.8235 46.1398 47.0578V52.2658C46.1398 53.5001 47.144 54.5044 48.3783 54.5044ZM55.5257 65.7699V55.3844H53.6355V65.77H55.5257V65.7699ZM59.4319 67.3813V66.6499H56.4056V76.6924H70.1038V76.3187C70.1038 74.6414 71.4683 73.2769 73.1456 73.2769H74.4717V71.138H71.4455V71.8693C71.4455 72.1124 71.2484 72.3093 71.0055 72.3093H59.8719C59.629 72.3093 59.4319 72.1124 59.4319 71.8693V69.5266C59.4319 69.2835 59.629 69.0866 59.8719 69.0866H71.0055C71.2485 69.0866 71.4455 69.2835 71.4455 69.5266V70.258H74.4718V56.8823L70.9451 60.409C70.8948 60.4593 70.8331 60.4966 70.7651 60.5178L69.9549 60.7709C70.2232 61.388 70.364 62.0581 70.364 62.7368C70.364 62.9799 70.167 63.1768 69.924 63.1768H60.9535C60.7105 63.1768 60.5135 62.9799 60.5135 62.7368C60.5135 60.6032 61.8775 58.7828 63.7791 58.1C63.1872 57.6173 62.8083 56.8827 62.8083 56.0611C62.8083 54.6108 63.9883 53.4307 65.4387 53.4307C66.889 53.4307 68.0691 54.6107 68.0691 56.0611C68.0691 56.8827 67.6902 57.6173 67.0982 58.1C67.4313 58.2192 67.7516 58.374 68.0527 58.5622L68.2328 57.9854C68.254 57.9176 68.2914 57.8558 68.3417 57.8056L74.0376 52.1097C73.4775 51.1618 72.4517 50.5628 71.3449 50.5628H61.1312V52.2657C61.1312 53.9853 59.7322 55.3843 58.0126 55.3843H56.4056V65.7699H59.4319V65.0384C59.4319 64.7953 59.629 64.5984 59.8719 64.5984H71.0055C71.2485 64.5984 71.4455 64.7953 71.4455 65.0384V67.3811C71.4455 67.6242 71.2485 67.8211 71.0055 67.8211H59.8719C59.629 67.8213 59.4319 67.6243 59.4319 67.3813ZM70.5655 66.9413V65.4786H60.3119V66.9413H70.5655ZM60.3119 69.9666V71.4293H70.5655V69.9666H60.3119ZM70.1636 81.9773C70.1246 81.7833 70.1039 81.5828 70.1039 81.3775V77.5725H56.4057V78.8505C56.4057 80.5747 57.8084 81.9773 59.5326 81.9773H70.1636ZM84.8599 76.3187C84.8599 75.1267 83.89 74.1569 82.698 74.1569H73.1457C71.9537 74.1569 70.9839 75.1267 70.9839 76.3187V81.3774C70.9839 82.5694 71.9537 83.5392 73.1457 83.5392H82.698C83.89 83.5393 84.8599 82.5694 84.8599 81.3775V76.3187ZM57.2875 47.6048H49.1035C48.8606 47.6048 48.6635 47.8017 48.6635 48.0448C48.6635 48.2878 48.8606 48.4848 49.1035 48.4848H57.2875C57.5305 48.4848 57.7275 48.2878 57.7275 48.0448C57.7275 47.8017 57.5305 47.6048 57.2875 47.6048ZM57.2875 50.8388H49.1035C48.8606 50.8388 48.6635 51.0357 48.6635 51.2788C48.6635 51.5218 48.8606 51.7188 49.1035 51.7188H57.2875C57.5305 51.7188 57.7275 51.5218 57.7275 51.2788C57.7275 51.0357 57.5305 50.8388 57.2875 50.8388ZM82.0138 80.025H73.8298C73.5869 80.025 73.3898 80.222 73.3898 80.465C73.3898 80.7081 73.5869 80.905 73.8298 80.905H82.0138C82.2568 80.905 82.4538 80.7081 82.4538 80.465C82.4538 80.222 82.2568 80.025 82.0138 80.025ZM82.0138 76.791H73.8298C73.5869 76.791 73.3898 76.9879 73.3898 77.231C73.3898 77.4741 73.5869 77.671 73.8298 77.671H82.0138C82.2568 77.671 82.4538 77.4741 82.4538 77.231C82.4538 76.9879 82.2568 76.791 82.0138 76.791Z"/>
</mask>
<path d="M67.536 79.6353C67.536 79.8784 67.3389 80.0753 67.096 80.0753H63.7816C63.5386 80.0753 63.3416 79.8784 63.3416 79.6353C63.3416 79.3923 63.5386 79.1953 63.7816 79.1953H67.096C67.3389 79.1953 67.536 79.3923 67.536 79.6353ZM85.7399 76.3187V81.3774C85.7399 83.0547 84.3752 84.4192 82.698 84.4192H73.1457C72.0054 84.4192 71.0101 83.7882 70.4894 82.8572H59.5326C57.3232 82.8572 55.5257 81.0597 55.5257 78.8504V66.6499H53.1955C52.9526 66.6499 52.7555 66.453 52.7555 66.2099V55.3844H48.3784C46.6587 55.3844 45.2598 53.9854 45.2598 52.2658V47.0578C45.2598 45.3381 46.6587 43.9392 48.3783 43.9392H58.0126C59.7322 43.9392 61.1312 45.3381 61.1312 47.0578V49.683H71.3448C72.6877 49.683 73.9383 50.3689 74.6763 51.4711L79.7025 46.4448C79.8744 46.273 80.153 46.273 80.3248 46.4448L82.3059 48.4259C82.3885 48.5084 82.4348 48.6203 82.4348 48.737C82.4348 48.8537 82.3885 48.9656 82.306 49.0481L75.3518 56.0024V70.2581H77.9218C78.1648 70.2581 78.3618 70.4551 78.3618 70.6981V73.2771H82.698C84.3752 73.2769 85.7399 74.6415 85.7399 76.3187ZM75.3518 71.138V73.2769H77.4818V71.138H75.3518ZM69.0405 58.3513L68.4232 60.3275L70.3994 59.7102L81.3727 48.7369L80.0138 47.3782L69.0405 58.3513ZM69.1085 61.0354L67.8841 61.4178C67.841 61.4313 67.7968 61.4379 67.753 61.4379C67.638 61.4379 67.5256 61.3927 67.4418 61.309C67.3261 61.1933 67.2841 61.0229 67.3329 60.8667L67.7792 59.4382C67.0986 58.9554 66.2785 58.6917 65.4388 58.6917C63.3569 58.6917 61.6373 60.2726 61.4173 62.2969H69.4602C69.4124 61.8595 69.2929 61.4331 69.1085 61.0354ZM65.4387 57.8116C66.4039 57.8116 67.1892 57.0264 67.1892 56.0612C67.1892 55.096 66.4039 54.3108 65.4387 54.3108C64.4736 54.3108 63.6884 55.096 63.6884 56.0612C63.6884 57.0264 64.4736 57.8116 65.4387 57.8116ZM48.3783 54.5044H58.0126C59.247 54.5044 60.2512 53.5002 60.2512 52.2659V47.0578C60.2512 45.8235 59.247 44.8192 58.0126 44.8192H48.3783C47.144 44.8192 46.1398 45.8235 46.1398 47.0578V52.2658C46.1398 53.5001 47.144 54.5044 48.3783 54.5044ZM55.5257 65.7699V55.3844H53.6355V65.77H55.5257V65.7699ZM59.4319 67.3813V66.6499H56.4056V76.6924H70.1038V76.3187C70.1038 74.6414 71.4683 73.2769 73.1456 73.2769H74.4717V71.138H71.4455V71.8693C71.4455 72.1124 71.2484 72.3093 71.0055 72.3093H59.8719C59.629 72.3093 59.4319 72.1124 59.4319 71.8693V69.5266C59.4319 69.2835 59.629 69.0866 59.8719 69.0866H71.0055C71.2485 69.0866 71.4455 69.2835 71.4455 69.5266V70.258H74.4718V56.8823L70.9451 60.409C70.8948 60.4593 70.8331 60.4966 70.7651 60.5178L69.9549 60.7709C70.2232 61.388 70.364 62.0581 70.364 62.7368C70.364 62.9799 70.167 63.1768 69.924 63.1768H60.9535C60.7105 63.1768 60.5135 62.9799 60.5135 62.7368C60.5135 60.6032 61.8775 58.7828 63.7791 58.1C63.1872 57.6173 62.8083 56.8827 62.8083 56.0611C62.8083 54.6108 63.9883 53.4307 65.4387 53.4307C66.889 53.4307 68.0691 54.6107 68.0691 56.0611C68.0691 56.8827 67.6902 57.6173 67.0982 58.1C67.4313 58.2192 67.7516 58.374 68.0527 58.5622L68.2328 57.9854C68.254 57.9176 68.2914 57.8558 68.3417 57.8056L74.0376 52.1097C73.4775 51.1618 72.4517 50.5628 71.3449 50.5628H61.1312V52.2657C61.1312 53.9853 59.7322 55.3843 58.0126 55.3843H56.4056V65.7699H59.4319V65.0384C59.4319 64.7953 59.629 64.5984 59.8719 64.5984H71.0055C71.2485 64.5984 71.4455 64.7953 71.4455 65.0384V67.3811C71.4455 67.6242 71.2485 67.8211 71.0055 67.8211H59.8719C59.629 67.8213 59.4319 67.6243 59.4319 67.3813ZM70.5655 66.9413V65.4786H60.3119V66.9413H70.5655ZM60.3119 69.9666V71.4293H70.5655V69.9666H60.3119ZM70.1636 81.9773C70.1246 81.7833 70.1039 81.5828 70.1039 81.3775V77.5725H56.4057V78.8505C56.4057 80.5747 57.8084 81.9773 59.5326 81.9773H70.1636ZM84.8599 76.3187C84.8599 75.1267 83.89 74.1569 82.698 74.1569H73.1457C71.9537 74.1569 70.9839 75.1267 70.9839 76.3187V81.3774C70.9839 82.5694 71.9537 83.5392 73.1457 83.5392H82.698C83.89 83.5393 84.8599 82.5694 84.8599 81.3775V76.3187ZM57.2875 47.6048H49.1035C48.8606 47.6048 48.6635 47.8017 48.6635 48.0448C48.6635 48.2878 48.8606 48.4848 49.1035 48.4848H57.2875C57.5305 48.4848 57.7275 48.2878 57.7275 48.0448C57.7275 47.8017 57.5305 47.6048 57.2875 47.6048ZM57.2875 50.8388H49.1035C48.8606 50.8388 48.6635 51.0357 48.6635 51.2788C48.6635 51.5218 48.8606 51.7188 49.1035 51.7188H57.2875C57.5305 51.7188 57.7275 51.5218 57.7275 51.2788C57.7275 51.0357 57.5305 50.8388 57.2875 50.8388ZM82.0138 80.025H73.8298C73.5869 80.025 73.3898 80.222 73.3898 80.465C73.3898 80.7081 73.5869 80.905 73.8298 80.905H82.0138C82.2568 80.905 82.4538 80.7081 82.4538 80.465C82.4538 80.222 82.2568 80.025 82.0138 80.025ZM82.0138 76.791H73.8298C73.5869 76.791 73.3898 76.9879 73.3898 77.231C73.3898 77.4741 73.5869 77.671 73.8298 77.671H82.0138C82.2568 77.671 82.4538 77.4741 82.4538 77.231C82.4538 76.9879 82.2568 76.791 82.0138 76.791Z" fill="white"/>
<path d="M67.536 79.6353C67.536 79.8784 67.3389 80.0753 67.096 80.0753H63.7816C63.5386 80.0753 63.3416 79.8784 63.3416 79.6353C63.3416 79.3923 63.5386 79.1953 63.7816 79.1953H67.096C67.3389 79.1953 67.536 79.3923 67.536 79.6353ZM85.7399 76.3187V81.3774C85.7399 83.0547 84.3752 84.4192 82.698 84.4192H73.1457C72.0054 84.4192 71.0101 83.7882 70.4894 82.8572H59.5326C57.3232 82.8572 55.5257 81.0597 55.5257 78.8504V66.6499H53.1955C52.9526 66.6499 52.7555 66.453 52.7555 66.2099V55.3844H48.3784C46.6587 55.3844 45.2598 53.9854 45.2598 52.2658V47.0578C45.2598 45.3381 46.6587 43.9392 48.3783 43.9392H58.0126C59.7322 43.9392 61.1312 45.3381 61.1312 47.0578V49.683H71.3448C72.6877 49.683 73.9383 50.3689 74.6763 51.4711L79.7025 46.4448C79.8744 46.273 80.153 46.273 80.3248 46.4448L82.3059 48.4259C82.3885 48.5084 82.4348 48.6203 82.4348 48.737C82.4348 48.8537 82.3885 48.9656 82.306 49.0481L75.3518 56.0024V70.2581H77.9218C78.1648 70.2581 78.3618 70.4551 78.3618 70.6981V73.2771H82.698C84.3752 73.2769 85.7399 74.6415 85.7399 76.3187ZM75.3518 71.138V73.2769H77.4818V71.138H75.3518ZM69.0405 58.3513L68.4232 60.3275L70.3994 59.7102L81.3727 48.7369L80.0138 47.3782L69.0405 58.3513ZM69.1085 61.0354L67.8841 61.4178C67.841 61.4313 67.7968 61.4379 67.753 61.4379C67.638 61.4379 67.5256 61.3927 67.4418 61.309C67.3261 61.1933 67.2841 61.0229 67.3329 60.8667L67.7792 59.4382C67.0986 58.9554 66.2785 58.6917 65.4388 58.6917C63.3569 58.6917 61.6373 60.2726 61.4173 62.2969H69.4602C69.4124 61.8595 69.2929 61.4331 69.1085 61.0354ZM65.4387 57.8116C66.4039 57.8116 67.1892 57.0264 67.1892 56.0612C67.1892 55.096 66.4039 54.3108 65.4387 54.3108C64.4736 54.3108 63.6884 55.096 63.6884 56.0612C63.6884 57.0264 64.4736 57.8116 65.4387 57.8116ZM48.3783 54.5044H58.0126C59.247 54.5044 60.2512 53.5002 60.2512 52.2659V47.0578C60.2512 45.8235 59.247 44.8192 58.0126 44.8192H48.3783C47.144 44.8192 46.1398 45.8235 46.1398 47.0578V52.2658C46.1398 53.5001 47.144 54.5044 48.3783 54.5044ZM55.5257 65.7699V55.3844H53.6355V65.77H55.5257V65.7699ZM59.4319 67.3813V66.6499H56.4056V76.6924H70.1038V76.3187C70.1038 74.6414 71.4683 73.2769 73.1456 73.2769H74.4717V71.138H71.4455V71.8693C71.4455 72.1124 71.2484 72.3093 71.0055 72.3093H59.8719C59.629 72.3093 59.4319 72.1124 59.4319 71.8693V69.5266C59.4319 69.2835 59.629 69.0866 59.8719 69.0866H71.0055C71.2485 69.0866 71.4455 69.2835 71.4455 69.5266V70.258H74.4718V56.8823L70.9451 60.409C70.8948 60.4593 70.8331 60.4966 70.7651 60.5178L69.9549 60.7709C70.2232 61.388 70.364 62.0581 70.364 62.7368C70.364 62.9799 70.167 63.1768 69.924 63.1768H60.9535C60.7105 63.1768 60.5135 62.9799 60.5135 62.7368C60.5135 60.6032 61.8775 58.7828 63.7791 58.1C63.1872 57.6173 62.8083 56.8827 62.8083 56.0611C62.8083 54.6108 63.9883 53.4307 65.4387 53.4307C66.889 53.4307 68.0691 54.6107 68.0691 56.0611C68.0691 56.8827 67.6902 57.6173 67.0982 58.1C67.4313 58.2192 67.7516 58.374 68.0527 58.5622L68.2328 57.9854C68.254 57.9176 68.2914 57.8558 68.3417 57.8056L74.0376 52.1097C73.4775 51.1618 72.4517 50.5628 71.3449 50.5628H61.1312V52.2657C61.1312 53.9853 59.7322 55.3843 58.0126 55.3843H56.4056V65.7699H59.4319V65.0384C59.4319 64.7953 59.629 64.5984 59.8719 64.5984H71.0055C71.2485 64.5984 71.4455 64.7953 71.4455 65.0384V67.3811C71.4455 67.6242 71.2485 67.8211 71.0055 67.8211H59.8719C59.629 67.8213 59.4319 67.6243 59.4319 67.3813ZM70.5655 66.9413V65.4786H60.3119V66.9413H70.5655ZM60.3119 69.9666V71.4293H70.5655V69.9666H60.3119ZM70.1636 81.9773C70.1246 81.7833 70.1039 81.5828 70.1039 81.3775V77.5725H56.4057V78.8505C56.4057 80.5747 57.8084 81.9773 59.5326 81.9773H70.1636ZM84.8599 76.3187C84.8599 75.1267 83.89 74.1569 82.698 74.1569H73.1457C71.9537 74.1569 70.9839 75.1267 70.9839 76.3187V81.3774C70.9839 82.5694 71.9537 83.5392 73.1457 83.5392H82.698C83.89 83.5393 84.8599 82.5694 84.8599 81.3775V76.3187ZM57.2875 47.6048H49.1035C48.8606 47.6048 48.6635 47.8017 48.6635 48.0448C48.6635 48.2878 48.8606 48.4848 49.1035 48.4848H57.2875C57.5305 48.4848 57.7275 48.2878 57.7275 48.0448C57.7275 47.8017 57.5305 47.6048 57.2875 47.6048ZM57.2875 50.8388H49.1035C48.8606 50.8388 48.6635 51.0357 48.6635 51.2788C48.6635 51.5218 48.8606 51.7188 49.1035 51.7188H57.2875C57.5305 51.7188 57.7275 51.5218 57.7275 51.2788C57.7275 51.0357 57.5305 50.8388 57.2875 50.8388ZM82.0138 80.025H73.8298C73.5869 80.025 73.3898 80.222 73.3898 80.465C73.3898 80.7081 73.5869 80.905 73.8298 80.905H82.0138C82.2568 80.905 82.4538 80.7081 82.4538 80.465C82.4538 80.222 82.2568 80.025 82.0138 80.025ZM82.0138 76.791H73.8298C73.5869 76.791 73.3898 76.9879 73.3898 77.231C73.3898 77.4741 73.5869 77.671 73.8298 77.671H82.0138C82.2568 77.671 82.4538 77.4741 82.4538 77.231C82.4538 76.9879 82.2568 76.791 82.0138 76.791Z" stroke="white" stroke-width="0.2" mask="url(#path-12-outside-1_34_5406)"/>
<defs>
<filter id="filter0_f_34_5406" x="11.8999" y="12.2335" width="107.2" height="107.2" filterUnits="userSpaceOnUse" color-interpolation-filters="sRGB">
<feFlood flood-opacity="0" result="BackgroundImageFix"/>
<feBlend mode="normal" in="SourceGraphic" in2="BackgroundImageFix" result="shape"/>
<feGaussianBlur stdDeviation="6" result="effect1_foregroundBlur_34_5406"/>
</filter>
</defs>
</svg>
