<svg width="131" height="131" viewBox="0 0 131 131" fill="none" xmlns="http://www.w3.org/2000/svg">
<path d="M0.5 65.8335C0.5 29.9535 29.62 0.833496 65.5 0.833496C101.38 0.833496 130.5 29.9535 130.5 65.8335C130.5 101.713 101.38 130.833 65.5 130.833C29.62 130.833 0.5 101.713 0.5 65.8335Z" fill="white"/>
<g opacity="0.4" filter="url(#filter0_f_34_5481)">
<path d="M23.8999 65.8335C23.8999 42.8495 42.5159 24.2335 65.4999 24.2335C88.4839 24.2335 107.1 42.8495 107.1 65.8335C107.1 88.8175 88.4839 107.434 65.4999 107.434C42.5159 107.434 23.8999 88.8175 23.8999 65.8335Z" fill="#199ADC"/>
</g>
<path d="M6.21973 65.8335C6.21973 33.0735 32.7397 6.55347 65.4997 6.55347C98.2597 6.55347 124.78 33.0735 124.78 65.8335C124.78 98.5935 98.2597 125.113 65.4997 125.113C32.7397 125.113 6.21973 98.5935 6.21973 65.8335Z" stroke="#199ADC" stroke-dasharray="25 10"/>
<path d="M15.5801 65.8335C15.5801 38.2735 37.9401 15.9135 65.5001 15.9135C93.0601 15.9135 115.42 38.2735 115.42 65.8335C115.42 93.3934 93.0601 115.753 65.5001 115.753C37.9401 115.753 15.5801 93.3934 15.5801 65.8335Z" stroke="#199ADC" stroke-dasharray="25 10"/>
<path d="M23.8999 64.1792C23.8999 41.1952 42.5159 22.5792 65.4999 22.5792C88.4839 22.5792 107.1 41.1952 107.1 64.1792C107.1 87.1632 88.4839 105.779 65.4999 105.779C42.5159 105.779 23.8999 87.1632 23.8999 64.1792Z" fill="#199ADC"/>
<path d="M18.7002 25.6992C18.7002 23.9312 20.0522 22.5792 21.8202 22.5792C23.5882 22.5792 24.9402 23.9312 24.9402 25.6992C24.9402 27.4672 23.5882 28.8192 21.8202 28.8192C20.0522 28.8192 18.7002 27.4672 18.7002 25.6992Z" fill="#199ADC"/>
<path d="M118.54 48.2764C118.54 46.5084 119.892 45.1564 121.66 45.1564C123.428 45.1564 124.78 46.5084 124.78 48.2764C124.78 50.0444 123.428 51.3964 121.66 51.3964C119.892 51.3964 118.54 50.0444 118.54 48.2764Z" fill="#199ADC"/>
<path d="M84.2026 20.4999C84.2026 18.7319 85.5546 17.3799 87.3226 17.3799C89.0906 17.3799 90.4426 18.7319 90.4426 20.4999C90.4426 22.2679 89.0906 23.6199 87.3226 23.6199C85.5546 23.6199 84.2026 22.2679 84.2026 20.4999Z" fill="#199ADC"/>
<path d="M15.5801 82.4735C15.5801 80.7055 16.9321 79.3535 18.7001 79.3535C20.4681 79.3535 21.8201 80.7055 21.8201 82.4735C21.8201 84.2415 20.4681 85.5935 18.7001 85.5935C16.9321 85.5935 15.5801 84.2415 15.5801 82.4735Z" fill="#199ADC"/>
<path d="M50.5737 123.334C50.5737 121.566 51.9257 120.214 53.6937 120.214C55.4617 120.214 56.8137 121.566 56.8137 123.334C56.8137 125.102 55.4617 126.454 53.6937 126.454C51.9257 126.454 50.5737 125.102 50.5737 123.334Z" fill="#199ADC"/>
<path d="M110.194 82.3521C110.194 80.5841 111.546 79.2321 113.314 79.2321C115.082 79.2321 116.434 80.5841 116.434 82.3521C116.434 84.1201 115.082 85.4721 113.314 85.4721C111.546 85.4721 110.194 84.1201 110.194 82.3521Z" fill="#199ADC"/>
<path d="M83.6809 83.2333H82.1916V71.6111C82.1916 71.2836 81.9262 71.0181 81.5987 71.0181C81.2711 71.0181 81.0057 71.2836 81.0057 71.6111V83.2333H78.0273V66.8502H81.0057V68.8439C81.0057 69.1714 81.2711 69.4369 81.5987 69.4369C81.9262 69.4369 82.1916 69.1714 82.1916 68.8439V66.5735C82.1916 66.0722 81.7838 65.6643 81.2824 65.6643H77.7505C77.2492 65.6643 76.8413 66.0722 76.8413 66.5735V83.2333H75.8409V74.0438C75.8409 73.5425 75.4331 73.1346 74.9317 73.1346H71.3998C70.8985 73.1346 70.4906 73.5425 70.4906 74.0438V83.2333H69.4903V69.9836C69.4903 69.4823 69.0824 69.0744 68.5811 69.0744H65.0492C64.5479 69.0744 64.14 69.4823 64.14 69.9836V83.2333H63.1396V80.0708C63.1396 79.7433 62.8742 79.4778 62.5467 79.4778C62.2191 79.4778 61.9537 79.7433 61.9537 80.0708V83.2333H58.9753V66.7206H61.9537V77.3036C61.9537 77.6311 62.2191 77.8966 62.5467 77.8966C62.8742 77.8966 63.1396 77.6311 63.1396 77.3036V66.4439C63.1396 65.9426 62.7318 65.5347 62.2304 65.5347H58.6985C58.1972 65.5347 57.7893 65.9426 57.7893 66.4439V83.2333H56.789V73.9411C56.789 73.4398 56.3811 73.0319 55.8798 73.0319H52.3479C51.8465 73.0319 51.4386 73.4398 51.4386 73.9411V83.2333H49.9494C49.6219 83.2333 49.3564 83.4988 49.3564 83.8262C49.3564 84.1537 49.6219 84.4192 49.9494 84.4192H83.6809C84.0084 84.4192 84.2738 84.1537 84.2738 83.8262C84.2738 83.4988 84.0083 83.2333 83.6809 83.2333ZM55.603 83.2333H52.6246V74.2179H55.603V83.2333ZM68.3043 83.2333H65.3259V70.2603H68.3043V83.2333ZM74.655 83.2333H71.6766V74.3206H74.655V83.2333Z" fill="white"/>
<path d="M54.9559 57.3824C54.9559 58.6552 55.3909 59.8275 56.1184 60.7613L55.5758 61.2861C55.1553 61.0105 54.6532 60.8497 54.114 60.8497C52.639 60.8497 51.4389 62.0498 51.4389 63.5249C51.4389 65 52.639 66.2 54.114 66.2C55.5891 66.2 56.7892 65 56.7892 63.5249C56.7892 63.0175 56.6472 62.5426 56.4008 62.138L56.9423 61.6143C57.898 62.411 59.1261 62.8913 60.4646 62.8913C62.0249 62.8913 63.4346 62.2382 64.4379 61.1924L70.7383 66.0468C70.5799 66.3883 70.4908 66.7682 70.4908 67.1687C70.4908 68.6438 71.6909 69.8439 73.1659 69.8439C74.641 69.8439 75.8411 68.6438 75.8411 67.1687C75.8411 66.6301 75.6805 66.1284 75.4055 65.7082L78.1285 62.8959C78.5335 63.1427 79.0087 63.285 79.5166 63.285C80.9917 63.285 82.1918 62.0849 82.1918 60.6099C82.1918 59.1348 80.9917 57.9347 79.5166 57.9347C78.0416 57.9347 76.8415 59.1348 76.8415 60.6099C76.8415 61.1485 77.0021 61.6502 77.2771 62.0704L74.554 64.8826C74.1491 64.6359 73.6738 64.4935 73.1659 64.4935C72.5193 64.4935 71.9255 64.7242 71.4625 65.1076L65.1636 60.2543C65.6769 59.4175 65.9735 58.434 65.9735 57.3824C65.9735 56.6598 65.8346 55.9557 65.5607 55.2893C65.4362 54.9865 65.09 54.8421 64.7868 54.9664C64.4839 55.0909 64.3393 55.4374 64.4639 55.7403C64.6786 56.2628 64.7875 56.8153 64.7875 57.3824C64.7875 58.1618 64.5792 58.8929 64.2169 59.525L62.8923 58.5043C63.0507 58.1629 63.1398 57.7829 63.1398 57.3824C63.1398 55.9073 61.9397 54.7072 60.4646 54.7072C58.9896 54.7072 57.7895 55.9073 57.7895 57.3824C57.7895 57.8898 57.9315 58.3646 58.1778 58.7693L56.9762 59.9314C56.4521 59.2161 56.1417 58.335 56.1417 57.3824C56.1417 56.8055 56.256 56.2552 56.462 55.7516H56.7874C57.3227 55.7516 57.7581 55.3162 57.7581 54.7808V54.0168C58.4995 53.419 59.4404 53.0595 60.4646 53.0595C61.3509 53.0595 62.2034 53.3266 62.9299 53.8321C63.1987 54.0191 63.5682 53.9528 63.7552 53.684C63.9423 53.4152 63.8759 53.0456 63.6071 52.8586C62.6809 52.2141 61.5943 51.8735 60.4646 51.8735C59.4814 51.8735 58.558 52.1332 57.7581 52.5865V50.8608C57.7581 50.3255 57.3226 49.89 56.7874 49.89H46.6016C46.0663 49.89 45.6309 50.3255 45.6309 50.8608V54.781C45.6309 55.3163 46.0663 55.7518 46.6016 55.7518H55.2048C55.0442 56.2674 54.9559 56.8145 54.9559 57.3824ZM54.114 65.0141C53.2929 65.0141 52.6248 64.346 52.6248 63.5249C52.6248 62.7037 53.2929 62.0357 54.114 62.0357C54.9352 62.0357 55.6032 62.7037 55.6032 63.5249C55.6032 64.346 54.9352 65.0141 54.114 65.0141ZM79.5167 59.1206C80.3379 59.1206 81.0059 59.7887 81.0059 60.6099C81.0059 61.431 80.3379 62.0991 79.5167 62.0991C78.6956 62.0991 78.0275 61.431 78.0275 60.6099C78.0275 59.7887 78.6956 59.1206 79.5167 59.1206ZM73.166 65.6795C73.9872 65.6795 74.6552 66.3476 74.6552 67.1687C74.6552 67.9899 73.9872 68.6579 73.166 68.6579C72.3449 68.6579 71.6768 67.9899 71.6768 67.1687C71.6768 66.3476 72.3449 65.6795 73.166 65.6795ZM60.4646 55.8932C61.2858 55.8932 61.9539 56.5613 61.9539 57.3824C61.9539 58.2036 61.2858 58.8717 60.4646 58.8717C59.6435 58.8717 58.9754 58.2036 58.9754 57.3824C58.9754 56.5613 59.6436 55.8932 60.4646 55.8932ZM59.0029 59.6212C59.4235 59.8967 59.9255 60.0575 60.4647 60.0575C61.1114 60.0575 61.7051 59.8268 62.1682 59.4434L63.4926 60.4639C62.712 61.231 61.6429 61.7053 60.4647 61.7053C59.4605 61.7053 58.5359 61.3601 57.8013 60.7835L59.0029 59.6212ZM46.8167 54.5658V51.0759H56.5722V54.5658H46.8167Z" fill="white"/>
<path d="M49.7124 52.2279H48.2854C47.9578 52.2279 47.6924 52.4934 47.6924 52.8209C47.6924 53.1484 47.9578 53.4138 48.2854 53.4138H49.7125C50.0401 53.4138 50.3055 53.1484 50.3055 52.8209C50.3055 52.4934 50.04 52.2279 49.7124 52.2279Z" fill="white"/>
<path d="M55.1039 52.2279H51.5646C51.2371 52.2279 50.9717 52.4934 50.9717 52.8209C50.9717 53.1484 51.2371 53.4138 51.5646 53.4138H55.1039C55.4314 53.4138 55.6968 53.1484 55.6968 52.8209C55.6968 52.4934 55.4314 52.2279 55.1039 52.2279Z" fill="white"/>
<path d="M78.2246 55.4767C78.2317 55.4913 78.2393 55.5055 78.2474 55.5195L79.0154 56.8283C79.1219 57.0097 79.3166 57.1212 79.5269 57.1212C79.7373 57.1212 79.9318 57.0097 80.0383 56.8282L80.8064 55.5193C80.8146 55.5054 80.8221 55.4911 80.829 55.4767C83.4636 54.8763 85.3691 52.4916 85.3691 49.7814C85.3691 48.1698 84.7271 46.669 83.5612 45.5557C82.3959 44.443 80.8651 43.8718 79.251 43.9456C77.8078 44.0121 76.4434 44.6155 75.4095 45.6444C74.3754 46.6734 73.7655 48.0348 73.6923 49.4777C73.5474 52.333 75.4501 54.8457 78.2246 55.4767ZM74.8767 49.538C74.9966 47.1753 76.942 45.2393 79.3057 45.1303C80.5932 45.0708 81.8134 45.5266 82.7421 46.4135C83.6714 47.3009 84.1832 48.497 84.1832 49.7815C84.1832 51.9588 82.6406 53.8724 80.5153 54.3316C80.1765 54.4048 79.8926 54.6428 79.7593 54.9604L79.5269 55.3566L79.2944 54.9604C79.161 54.6429 78.8765 54.4048 78.5367 54.3312C76.2996 53.8469 74.7604 51.831 74.8767 49.538Z" fill="white"/>
<path d="M78.9234 50.3745H80.1298C80.4047 50.3745 80.6284 50.5981 80.6284 50.873C80.6284 51.148 80.4047 51.3717 80.1298 51.3717H78.0042C77.6766 51.3717 77.4112 51.6372 77.4112 51.9646C77.4112 52.2921 77.6766 52.5576 78.0042 52.5576H78.9336V53.0849C78.9336 53.4124 79.199 53.6778 79.5266 53.6778C79.8542 53.6778 80.1196 53.4124 80.1196 53.0849V52.5576H80.1298C81.0587 52.5576 81.8144 51.8019 81.8144 50.873C81.8144 49.9442 81.0587 49.1885 80.1298 49.1885H78.9234C78.6484 49.1885 78.4247 48.9649 78.4247 48.6899C78.4247 48.415 78.6484 48.1913 78.9234 48.1913H81.049C81.3766 48.1913 81.642 47.9258 81.642 47.5983C81.642 47.2709 81.3766 47.0054 81.049 47.0054H80.1196V46.4781C80.1196 46.1506 79.8542 45.8851 79.5266 45.8851C79.199 45.8851 78.9336 46.1506 78.9336 46.4781V47.0054H78.9234C77.9945 47.0054 77.2388 47.761 77.2388 48.69C77.2388 49.6188 77.9945 50.3745 78.9234 50.3745Z" fill="white"/>
<defs>
<filter id="filter0_f_34_5481" x="11.8999" y="12.2335" width="107.2" height="107.2" filterUnits="userSpaceOnUse" color-interpolation-filters="sRGB">
<feFlood flood-opacity="0" result="BackgroundImageFix"/>
<feBlend mode="normal" in="SourceGraphic" in2="BackgroundImageFix" result="shape"/>
<feGaussianBlur stdDeviation="6" result="effect1_foregroundBlur_34_5481"/>
</filter>
</defs>
</svg>
