<svg width="131" height="131" viewBox="0 0 131 131" fill="none" xmlns="http://www.w3.org/2000/svg">
<path d="M0.5 65.8335C0.5 29.9535 29.62 0.833496 65.5 0.833496C101.38 0.833496 130.5 29.9535 130.5 65.8335C130.5 101.713 101.38 130.833 65.5 130.833C29.62 130.833 0.5 101.713 0.5 65.8335Z" fill="white"/>
<g opacity="0.4" filter="url(#filter0_f_34_5427)">
<path d="M23.8999 65.8335C23.8999 42.8495 42.5159 24.2335 65.4999 24.2335C88.4839 24.2335 107.1 42.8495 107.1 65.8335C107.1 88.8175 88.4839 107.434 65.4999 107.434C42.5159 107.434 23.8999 88.8175 23.8999 65.8335Z" fill="#199ADC"/>
</g>
<path d="M6.21973 65.8335C6.21973 33.0735 32.7397 6.55347 65.4997 6.55347C98.2597 6.55347 124.78 33.0735 124.78 65.8335C124.78 98.5935 98.2597 125.113 65.4997 125.113C32.7397 125.113 6.21973 98.5935 6.21973 65.8335Z" stroke="#199ADC" stroke-dasharray="25 10"/>
<path d="M15.5801 65.8335C15.5801 38.2735 37.9401 15.9135 65.5001 15.9135C93.0601 15.9135 115.42 38.2735 115.42 65.8335C115.42 93.3934 93.0601 115.753 65.5001 115.753C37.9401 115.753 15.5801 93.3934 15.5801 65.8335Z" stroke="#199ADC" stroke-dasharray="25 10"/>
<path d="M23.8999 64.1792C23.8999 41.1952 42.5159 22.5792 65.4999 22.5792C88.4839 22.5792 107.1 41.1952 107.1 64.1792C107.1 87.1632 88.4839 105.779 65.4999 105.779C42.5159 105.779 23.8999 87.1632 23.8999 64.1792Z" fill="#199ADC"/>
<path d="M18.7002 25.6992C18.7002 23.9312 20.0522 22.5792 21.8202 22.5792C23.5882 22.5792 24.9402 23.9312 24.9402 25.6992C24.9402 27.4672 23.5882 28.8192 21.8202 28.8192C20.0522 28.8192 18.7002 27.4672 18.7002 25.6992Z" fill="#199ADC"/>
<path d="M118.54 48.2764C118.54 46.5084 119.892 45.1564 121.66 45.1564C123.428 45.1564 124.78 46.5084 124.78 48.2764C124.78 50.0444 123.428 51.3964 121.66 51.3964C119.892 51.3964 118.54 50.0444 118.54 48.2764Z" fill="#199ADC"/>
<path d="M84.2026 20.4999C84.2026 18.7319 85.5546 17.3799 87.3226 17.3799C89.0906 17.3799 90.4426 18.7319 90.4426 20.4999C90.4426 22.2679 89.0906 23.6199 87.3226 23.6199C85.5546 23.6199 84.2026 22.2679 84.2026 20.4999Z" fill="#199ADC"/>
<path d="M15.5801 82.4735C15.5801 80.7055 16.9321 79.3535 18.7001 79.3535C20.4681 79.3535 21.8201 80.7055 21.8201 82.4735C21.8201 84.2415 20.4681 85.5935 18.7001 85.5935C16.9321 85.5935 15.5801 84.2415 15.5801 82.4735Z" fill="#199ADC"/>
<path d="M50.5737 123.334C50.5737 121.566 51.9257 120.214 53.6937 120.214C55.4617 120.214 56.8137 121.566 56.8137 123.334C56.8137 125.102 55.4617 126.454 53.6937 126.454C51.9257 126.454 50.5737 125.102 50.5737 123.334Z" fill="#199ADC"/>
<path d="M110.194 82.3521C110.194 80.5841 111.546 79.2321 113.314 79.2321C115.082 79.2321 116.434 80.5841 116.434 82.3521C116.434 84.1201 115.082 85.4721 113.314 85.4721C111.546 85.4721 110.194 84.1201 110.194 82.3521Z" fill="#199ADC"/>
<path d="M83.4914 43.9392H47.5091C46.2693 43.9392 45.2603 44.9482 45.2603 46.1881V82.1703C45.2603 83.4102 46.2693 84.4192 47.5091 84.4192H83.4914C84.7313 84.4192 85.7403 83.4102 85.7403 82.1703V46.1881C85.7403 44.9482 84.7313 43.9392 83.4914 43.9392ZM84.241 82.1703C84.241 82.5826 83.9037 82.9199 83.4914 82.9199H47.5091C47.0968 82.9199 46.7595 82.5826 46.7595 82.1703V54.434H84.241V82.1703ZM84.241 52.9348H46.7595V46.1881C46.7595 45.7758 47.0968 45.4385 47.5091 45.4385H83.4914C83.9037 45.4385 84.241 45.7758 84.241 46.1881V52.9348Z" fill="white"/>
<path d="M81.7627 48.437H79.5138C79.1 48.437 78.7642 48.7728 78.7642 49.1866C78.7642 49.6004 79.1 49.9363 79.5138 49.9363H81.7627C82.1765 49.9363 82.5123 49.6004 82.5123 49.1866C82.5123 48.7728 82.1765 48.437 81.7627 48.437Z" fill="white"/>
<path d="M76.3203 48.437H74.0714C73.6576 48.437 73.3218 48.7728 73.3218 49.1866C73.3218 49.6004 73.6576 49.9363 74.0714 49.9363H76.3203C76.7341 49.9363 77.0699 49.6004 77.0699 49.1866C77.0699 48.7728 76.7341 48.437 76.3203 48.437Z" fill="white"/>
<path d="M70.8764 48.437H68.6276C68.2138 48.437 67.8779 48.7728 67.8779 49.1866C67.8779 49.6004 68.2138 49.9363 68.6276 49.9363H70.8764C71.2902 49.9363 71.6261 49.6004 71.6261 49.1866C71.6261 48.7728 71.2902 48.437 70.8764 48.437Z" fill="white"/>
<path d="M58.2229 76.704C58.3698 76.8509 58.5617 76.9229 58.7536 76.9229C58.9455 76.9229 59.1374 76.8494 59.2844 76.704C59.5767 76.4116 59.5767 75.9363 59.2844 75.644L52.3173 68.6769L59.2829 61.7114C59.5752 61.419 59.5752 60.9438 59.2829 60.6514C58.9905 60.359 58.5152 60.359 58.2229 60.6514L50.7266 68.1477C50.4342 68.44 50.4342 68.9153 50.7266 69.2077L58.2229 76.704Z" fill="white"/>
<path d="M71.7162 76.704C71.8631 76.8509 72.055 76.9229 72.2469 76.9229C72.4388 76.9229 72.6307 76.8494 72.7776 76.704L80.2739 69.2077C80.5663 68.9153 80.5663 68.44 80.2739 68.1477L72.7776 60.6514C72.4853 60.359 72.01 60.359 71.7176 60.6514C71.4253 60.9438 71.4253 61.419 71.7176 61.7114L78.6832 68.6769L71.7176 75.6425C71.4238 75.9363 71.4238 76.4101 71.7162 76.704Z" fill="white"/>
<path d="M61.4821 79.1222C61.572 79.1552 61.662 79.1717 61.752 79.1717C62.0533 79.1717 62.3382 78.9888 62.4521 78.6919L69.9484 59.2016C70.0968 58.8147 69.9049 58.3815 69.5181 58.233C69.1268 58.0861 68.6965 58.278 68.5496 58.6633L61.0533 78.1537C60.9049 78.539 61.0953 78.9723 61.4821 79.1222Z" fill="white"/>
<defs>
<filter id="filter0_f_34_5427" x="11.8999" y="12.2335" width="107.2" height="107.2" filterUnits="userSpaceOnUse" color-interpolation-filters="sRGB">
<feFlood flood-opacity="0" result="BackgroundImageFix"/>
<feBlend mode="normal" in="SourceGraphic" in2="BackgroundImageFix" result="shape"/>
<feGaussianBlur stdDeviation="6" result="effect1_foregroundBlur_34_5427"/>
</filter>
</defs>
</svg>
