<svg width="131" height="131" viewBox="0 0 131 131" fill="none" xmlns="http://www.w3.org/2000/svg">
<path d="M0.5 65.8335C0.5 29.9535 29.62 0.833496 65.5 0.833496C101.38 0.833496 130.5 29.9535 130.5 65.8335C130.5 101.713 101.38 130.833 65.5 130.833C29.62 130.833 0.5 101.713 0.5 65.8335Z" fill="white"/>
<g opacity="0.4" filter="url(#filter0_f_34_5454)">
<path d="M23.8999 65.8335C23.8999 42.8495 42.5159 24.2335 65.4999 24.2335C88.4839 24.2335 107.1 42.8495 107.1 65.8335C107.1 88.8175 88.4839 107.434 65.4999 107.434C42.5159 107.434 23.8999 88.8175 23.8999 65.8335Z" fill="#35D453"/>
</g>
<path d="M6.21973 65.8335C6.21973 33.0735 32.7397 6.55347 65.4997 6.55347C98.2597 6.55347 124.78 33.0735 124.78 65.8335C124.78 98.5935 98.2597 125.113 65.4997 125.113C32.7397 125.113 6.21973 98.5935 6.21973 65.8335Z" stroke="#35D453" stroke-dasharray="25 10"/>
<path d="M15.5801 65.8335C15.5801 38.2735 37.9401 15.9135 65.5001 15.9135C93.0601 15.9135 115.42 38.2735 115.42 65.8335C115.42 93.3934 93.0601 115.753 65.5001 115.753C37.9401 115.753 15.5801 93.3934 15.5801 65.8335Z" stroke="#35D453" stroke-dasharray="25 10"/>
<path d="M23.8999 64.1792C23.8999 41.1952 42.5159 22.5792 65.4999 22.5792C88.4839 22.5792 107.1 41.1952 107.1 64.1792C107.1 87.1632 88.4839 105.779 65.4999 105.779C42.5159 105.779 23.8999 87.1632 23.8999 64.1792Z" fill="#35D453"/>
<path d="M18.7002 25.6992C18.7002 23.9312 20.0522 22.5792 21.8202 22.5792C23.5882 22.5792 24.9402 23.9312 24.9402 25.6992C24.9402 27.4672 23.5882 28.8192 21.8202 28.8192C20.0522 28.8192 18.7002 27.4672 18.7002 25.6992Z" fill="#35D453"/>
<path d="M118.54 48.2764C118.54 46.5084 119.892 45.1564 121.66 45.1564C123.428 45.1564 124.78 46.5084 124.78 48.2764C124.78 50.0444 123.428 51.3964 121.66 51.3964C119.892 51.3964 118.54 50.0444 118.54 48.2764Z" fill="#35D453"/>
<path d="M84.2026 20.4999C84.2026 18.7319 85.5546 17.3799 87.3226 17.3799C89.0906 17.3799 90.4426 18.7319 90.4426 20.4999C90.4426 22.2679 89.0906 23.6199 87.3226 23.6199C85.5546 23.6199 84.2026 22.2679 84.2026 20.4999Z" fill="#35D453"/>
<path d="M15.5801 82.4735C15.5801 80.7055 16.9321 79.3535 18.7001 79.3535C20.4681 79.3535 21.8201 80.7055 21.8201 82.4735C21.8201 84.2415 20.4681 85.5935 18.7001 85.5935C16.9321 85.5935 15.5801 84.2415 15.5801 82.4735Z" fill="#35D453"/>
<path d="M50.5737 123.334C50.5737 121.566 51.9257 120.214 53.6937 120.214C55.4617 120.214 56.8137 121.566 56.8137 123.334C56.8137 125.102 55.4617 126.454 53.6937 126.454C51.9257 126.454 50.5737 125.102 50.5737 123.334Z" fill="#35D453"/>
<path d="M110.194 82.3521C110.194 80.5841 111.546 79.2321 113.314 79.2321C115.082 79.2321 116.434 80.5841 116.434 82.3521C116.434 84.1201 115.082 85.4721 113.314 85.4721C111.546 85.4721 110.194 84.1201 110.194 82.3521Z" fill="#35D453"/>
<path d="M65.1561 68.9112C56.8935 68.9112 50.1714 62.1891 50.1714 53.9265C50.1714 45.6639 56.8935 38.9418 65.1561 38.9418C73.4187 38.9418 80.1408 45.6639 80.1408 53.9265C80.1408 62.1891 73.4187 68.9112 65.1561 68.9112ZM65.1561 40.5192C57.7632 40.5192 51.7487 46.5337 51.7487 53.9265C51.7487 61.3194 57.7632 67.3339 65.1561 67.3339C72.5489 67.3339 78.5634 61.3194 78.5634 53.9265C78.5634 46.5337 72.5489 40.5192 65.1561 40.5192Z" fill="white"/>
<path d="M65.1562 65.7567C58.6331 65.7567 53.3262 60.4497 53.3262 53.9266C53.3262 47.4036 58.6331 42.0966 65.1562 42.0966C71.6793 42.0966 76.9862 47.4036 76.9862 53.9266C76.9862 60.4497 71.6793 65.7567 65.1562 65.7567ZM65.1562 43.674C59.5028 43.674 54.9035 48.2733 54.9035 53.9266C54.9035 59.58 59.5028 64.1793 65.1562 64.1793C70.8096 64.1793 75.4089 59.58 75.4089 53.9266C75.4089 48.2733 70.8096 43.674 65.1562 43.674Z" fill="white"/>
<path d="M61.2125 57.87C61.0107 57.87 60.8088 57.793 60.6548 57.639L57.5001 54.4843C57.192 54.1764 57.192 53.677 57.5001 53.3691L60.6548 50.2144C60.9627 49.9064 61.4621 49.9064 61.77 50.2144C62.0781 50.5224 62.0781 51.0217 61.77 51.3297L59.1732 53.9266L61.7701 56.5236C62.0782 56.8316 62.0782 57.3309 61.7701 57.6389C61.6162 57.793 61.4143 57.87 61.2125 57.87Z" fill="white"/>
<path d="M69.0992 57.87C68.8973 57.87 68.6955 57.793 68.5415 57.639C68.2336 57.331 68.2336 56.8317 68.5415 56.5237L71.1386 53.9266L68.5415 51.3297C68.2336 51.0217 68.2336 50.5224 68.5415 50.2144C68.8496 49.9064 69.3488 49.9064 69.6569 50.2144L72.8116 53.3691C73.1196 53.677 73.1196 54.1764 72.8116 54.4843L69.6569 57.639C69.5029 57.793 69.3011 57.87 69.0992 57.87Z" fill="white"/>
<path d="M64.3682 57.8701C64.3115 57.8701 64.254 57.8639 64.1964 57.8512C63.7712 57.7567 63.503 57.3354 63.5976 56.9102L65.1749 49.8122C65.2694 49.387 65.6906 49.119 66.1159 49.2134C66.5411 49.3078 66.8091 49.7292 66.7147 50.1543L65.1374 57.2524C65.0557 57.6199 64.7297 57.8701 64.3682 57.8701Z" fill="white"/>
<path d="M65.1562 89.4167C62.9819 89.4167 61.2129 87.6477 61.2129 85.4734V75.2207C61.2129 74.7851 61.566 74.432 62.0016 74.432H68.3109C68.7464 74.432 69.0996 74.7851 69.0996 75.2207V85.4734C69.0996 87.6477 67.3306 89.4167 65.1562 89.4167ZM62.7902 76.0093V85.4734C62.7902 86.7779 63.8516 87.8394 65.1562 87.8394C66.4608 87.8394 67.5222 86.7779 67.5222 85.4734V76.0093H62.7902Z" fill="white"/>
<path d="M66.7334 76.0093H63.5787C63.1432 76.0093 62.79 75.6562 62.79 75.2206V68.0359C62.79 67.6003 63.1432 67.2472 63.5787 67.2472C64.0142 67.2472 64.3674 67.6003 64.3674 68.0359V74.432H65.9447V68.0359C65.9447 67.6003 66.2978 67.2472 66.7334 67.2472C67.1689 67.2472 67.522 67.6003 67.522 68.0359V75.2206C67.522 75.6562 67.1689 76.0093 66.7334 76.0093Z" fill="white"/>
<defs>
<filter id="filter0_f_34_5454" x="11.8999" y="12.2335" width="107.2" height="107.2" filterUnits="userSpaceOnUse" color-interpolation-filters="sRGB">
<feFlood flood-opacity="0" result="BackgroundImageFix"/>
<feBlend mode="normal" in="SourceGraphic" in2="BackgroundImageFix" result="shape"/>
<feGaussianBlur stdDeviation="6" result="effect1_foregroundBlur_34_5454"/>
</filter>
</defs>
</svg>
