<svg width="75" height="62" viewBox="0 0 75 62" fill="none" xmlns="http://www.w3.org/2000/svg">
<path d="M62.9625 32.9254H55.8794C54.9153 32.9254 53.982 33.0571 53.0938 33.2993C51.3416 29.8549 47.7642 27.4882 43.6421 27.4882H31.1217C26.9996 27.4882 23.4223 29.8549 21.6701 33.2993C20.7818 33.0571 19.8485 32.9254 18.8845 32.9254H11.8013C5.95668 32.9254 1.20166 37.6804 1.20166 43.5251V54.8481C1.20166 58.3549 4.05467 61.2079 7.56147 61.2079H67.2024C70.7092 61.2079 73.5622 58.3549 73.5622 54.8481V43.5251C73.5622 37.6804 68.8072 32.9254 62.9625 32.9254ZM20.5221 38.0881V56.9681H7.56147C6.39254 56.9681 5.44153 56.0171 5.44153 54.8482V43.5252C5.44153 40.0184 8.29455 37.1654 11.8013 37.1654H18.8845C19.46 37.1654 20.0172 37.2435 20.5478 37.3876C20.5325 37.6195 20.5221 37.8527 20.5221 38.0881ZM50.0019 56.9681H24.7619V38.088C24.7619 34.5812 27.6149 31.7282 31.1217 31.7282H43.6421C47.1489 31.7282 50.0019 34.5812 50.0019 38.088V56.9681ZM69.3223 54.8482C69.3223 56.0171 68.3713 56.9681 67.2024 56.9681H54.2418V38.088C54.2418 37.8524 54.2313 37.6192 54.2161 37.3874C54.7466 37.2435 55.3039 37.1652 55.8794 37.1652H62.9625C66.4693 37.1652 69.3223 40.0183 69.3223 43.5251V54.8482Z" fill="#35D453" stroke="white"/>
<path d="M15.3428 12.9064C10.1491 12.9064 5.92383 17.1317 5.92383 22.3254C5.92369 27.5191 10.1491 31.7444 15.3428 31.7444C20.5364 31.7444 24.7619 27.5191 24.7619 22.3254C24.7619 17.1317 20.5366 12.9064 15.3428 12.9064ZM15.3427 27.5045C12.4869 27.5045 10.1636 25.1812 10.1636 22.3254C10.1636 19.4696 12.4869 17.1462 15.3427 17.1462C18.1985 17.1462 20.5219 19.4696 20.5219 22.3254C20.5219 25.1812 18.1985 27.5045 15.3427 27.5045Z" fill="#35D453" stroke="white"/>
<path d="M37.382 1.20789C30.4433 1.20789 24.7983 6.85285 24.7983 13.7915C24.7983 20.7302 30.4433 26.3752 37.382 26.3752C44.3207 26.3752 49.9657 20.7302 49.9657 13.7915C49.9657 6.85299 44.3207 1.20789 37.382 1.20789ZM37.382 22.1353C32.7812 22.1353 29.0382 18.3924 29.0382 13.7915C29.0382 9.19086 32.7812 5.44776 37.382 5.44776C41.9828 5.44776 45.7258 9.19072 45.7258 13.7915C45.7258 18.3924 41.9828 22.1353 37.382 22.1353Z" fill="#35D453" stroke="white"/>
<path d="M59.421 12.9064C54.2274 12.9064 50.002 17.1317 50.002 22.3254C50.0021 27.5191 54.2274 31.7444 59.421 31.7444C64.6147 31.7444 68.84 27.5191 68.84 22.3254C68.84 17.1317 64.6147 12.9064 59.421 12.9064ZM59.421 27.5045C56.5653 27.5045 54.2418 25.1812 54.2418 22.3254C54.242 19.4696 56.5653 17.1462 59.421 17.1462C62.2768 17.1462 64.6001 19.4696 64.6001 22.3254C64.6001 25.1812 62.2768 27.5045 59.421 27.5045Z" fill="#35D453" stroke="white"/>
</svg>
