<svg width="47" height="61" viewBox="0 0 47 61" fill="none" xmlns="http://www.w3.org/2000/svg">
<path d="M42.4105 60.208C44.6419 60.208 46.3775 58.3485 46.3775 56.2411V8.01792C46.3775 5.78652 44.518 4.05098 42.4105 4.05098H32.9891L31.5014 0.951809C31.2535 0.579908 30.8816 0.208008 30.3857 0.208008H16.3775C15.8816 0.208008 15.5097 0.455942 15.2618 0.951809L13.7742 4.05098H4.35269C2.12128 4.05098 0.385742 5.91049 0.385742 8.01792V56.1171C0.385742 58.3485 2.24525 60.084 4.35269 60.084H42.4105V60.208ZM17.2452 2.68735H29.6419L32.1213 7.76999H14.7659L17.2452 2.68735ZM2.86508 56.1171V8.01792C2.86508 7.15016 3.60888 6.53032 4.35269 6.53032H12.5345L11.5428 8.51379C11.4188 8.88569 11.4188 9.38156 11.6667 9.75346C11.9147 10.1254 12.2866 10.3733 12.6585 10.3733H33.8568C34.2287 10.3733 34.7246 10.1254 34.8486 9.75346C35.0965 9.38156 35.0965 8.88569 34.9725 8.51379L33.9808 6.53032H42.1626C43.0304 6.53032 43.6502 7.27412 43.6502 8.01792V56.1171C43.6502 56.9849 42.9064 57.6047 42.1626 57.6047H4.47665C3.60888 57.7287 2.86508 56.9849 2.86508 56.1171Z" fill="#199ADC"/>
<path d="M22.5756 17.5633H39.0632C39.807 17.5633 40.3029 17.0675 40.3029 16.3237C40.3029 15.5799 39.807 15.084 39.0632 15.084H22.5756C21.8318 15.084 21.3359 15.5799 21.3359 16.3237C21.3359 17.0675 21.8318 17.5633 22.5756 17.5633Z" fill="#199ADC"/>
<path d="M22.5756 23.1419H39.0632C39.807 23.1419 40.3029 22.6461 40.3029 21.9023C40.3029 21.1585 39.807 20.6626 39.0632 20.6626H22.5756C21.8318 20.6626 21.3359 21.1585 21.3359 21.9023C21.3359 22.6461 21.8318 23.1419 22.5756 23.1419Z" fill="#199ADC"/>
<path d="M22.5756 32.1914H39.0632C39.807 32.1914 40.3029 31.6955 40.3029 30.9517C40.3029 30.2079 39.807 29.712 39.0632 29.712H22.5756C21.8318 29.712 21.3359 30.2079 21.3359 30.9517C21.3359 31.6955 21.8318 32.1914 22.5756 32.1914Z" fill="#199ADC"/>
<path d="M22.5756 37.646H39.0632C39.807 37.646 40.3029 37.1501 40.3029 36.4063C40.3029 35.6625 39.807 35.1666 39.0632 35.1666H22.5756C21.8318 35.1666 21.3359 35.6625 21.3359 36.4063C21.3359 37.1501 21.8318 37.646 22.5756 37.646Z" fill="#199ADC"/>
<path d="M22.5756 46.6956H39.0632C39.807 46.6956 40.3029 46.1998 40.3029 45.456C40.3029 44.7122 39.807 44.2163 39.0632 44.2163H22.5756C21.8318 44.2163 21.3359 44.7122 21.3359 45.456C21.3359 46.1998 21.8318 46.6956 22.5756 46.6956Z" fill="#199ADC"/>
<path d="M22.5756 52.15H39.0632C39.807 52.15 40.3029 51.6541 40.3029 50.9103C40.3029 50.1665 39.807 49.6707 39.0632 49.6707H22.5756C21.8318 49.6707 21.3359 50.1665 21.3359 50.9103C21.3359 51.6541 21.8318 52.15 22.5756 52.15Z" fill="#199ADC"/>
<path d="M10.1791 37.5221C10.427 37.77 10.675 37.894 11.0469 37.894C11.4188 37.894 11.6667 37.77 11.9146 37.5221L17.865 31.5717C18.3609 31.0758 18.3609 30.332 17.865 29.8361C17.3692 29.3403 16.6254 29.3403 16.1295 29.8361L11.0469 34.9188L8.81545 32.6874C8.31958 32.1915 7.57578 32.1915 7.07991 32.6874C6.58404 33.1832 6.58404 33.927 7.07991 34.4229L10.1791 37.5221Z" fill="#199ADC"/>
<path d="M10.1791 52.0261C10.427 52.274 10.675 52.398 11.0469 52.398C11.4188 52.398 11.6667 52.274 11.9146 52.0261L17.865 46.0757C18.3609 45.5798 18.3609 44.836 17.865 44.3402C17.3692 43.8443 16.6254 43.8443 16.1295 44.3402L11.0469 49.4228L8.81545 47.1914C8.31958 46.6955 7.57578 46.6955 7.07991 47.1914C6.58404 47.6873 6.58404 48.4311 7.07991 48.9269L10.1791 52.0261Z" fill="#199ADC"/>
<path d="M10.1791 23.6377C10.427 23.8856 10.675 24.0096 11.0469 24.0096C11.4188 24.0096 11.6667 23.8856 11.9146 23.6377L17.865 17.6873C18.3609 17.1914 18.3609 16.4476 17.865 15.9517C17.3692 15.4559 16.6254 15.4559 16.1295 15.9517L11.0469 20.9104L8.81545 18.679C8.31958 18.1831 7.57578 18.1831 7.07991 18.679C6.58404 19.1749 6.58404 19.9187 7.07991 20.4145L10.1791 23.6377Z" fill="#199ADC"/>
</svg>
