<svg width="55" height="61" viewBox="0 0 55 61" fill="none" xmlns="http://www.w3.org/2000/svg">
<path d="M46.756 51.599C46.0527 51.599 45.3623 51.6929 44.6953 51.8796C43.1818 49.7426 40.7055 48.4428 38.0613 48.4428C36.8002 48.4428 35.5685 48.7329 34.4519 49.2871C32.9583 47.4201 30.7932 46.2389 28.4178 45.9935C29.0542 43.9094 30.5067 41.979 32.147 40.3974C32.1634 40.4115 32.1787 40.4291 32.1963 40.4421C34.5 42.1974 36.5231 43.0628 38.3407 43.0628C38.7752 43.0628 39.1967 43.0135 39.6077 42.9149C42.8073 42.1493 44.4828 38.6855 46.102 35.3356C47.2668 32.9262 48.4715 30.4334 50.0272 29.7407C50.4135 29.5681 50.6366 29.1595 50.5732 28.7415C50.5098 28.3235 50.174 27.9994 49.7536 27.9501C39.7591 26.7771 33.9787 29.8992 31.9004 33.2127C30.8214 34.9329 30.603 36.8644 31.2394 38.6949C30.1685 39.6871 29.1552 40.8131 28.3227 42.0307V29.0538C35.848 28.5677 41.8221 22.2929 41.8221 14.6468C41.8198 6.68472 35.3419 0.208008 27.381 0.208008C19.4202 0.208008 12.9423 6.68472 12.9423 14.6468C12.9423 22.2929 18.9165 28.5677 26.4417 29.0538V40.226C25.628 39.0718 24.6159 38.1008 23.5368 37.2882C24.0077 35.4624 23.6578 33.599 22.5012 31.988C20.221 28.8107 14.255 26.0538 4.35443 27.8468C3.93877 27.9219 3.6241 28.2659 3.58652 28.6875C3.54895 29.109 3.79787 29.5035 4.19357 29.6515C5.78926 30.2468 7.1466 32.6585 8.45932 34.9916C10.284 38.2346 12.1709 41.588 15.4127 42.1528C15.7169 42.2057 16.0245 42.2327 16.3368 42.2327C18.246 42.2327 20.3243 41.2417 22.655 39.2244C22.7032 39.1833 22.7454 39.1364 22.783 39.0859C24.7004 40.6393 26.2597 42.7763 26.4417 45.6612V46.0064C24.0758 46.2824 21.9364 47.4835 20.4664 49.3669C19.3098 48.761 18.0253 48.4428 16.7008 48.4428C14.0554 48.4428 11.5791 49.7426 10.0668 51.8796C9.39866 51.6929 8.70825 51.599 8.00609 51.599C3.77674 51.599 0.336426 55.0393 0.336426 59.2687C0.336426 59.7877 0.756778 60.208 1.27576 60.208H53.4875C54.0065 60.208 54.4268 59.7877 54.4268 59.2687C54.4257 55.0393 50.9853 51.599 46.756 51.599ZM33.4902 34.2096C35.0354 31.7462 39.5196 29.2229 47.2421 29.6197C46.1548 30.9055 45.2977 32.6785 44.4088 34.5172C42.9799 37.4726 41.5028 40.5289 39.1685 41.0879C37.6949 41.4413 35.8151 40.7814 33.5807 39.1317C35.383 37.6769 37.1936 36.6777 38.2538 36.3689C38.7517 36.2233 39.0382 35.7019 38.8926 35.2041C38.747 34.7062 38.2257 34.4197 37.7278 34.5653C36.4902 34.9258 34.6609 35.9203 32.8245 37.347C32.6437 36.282 32.8632 35.2088 33.4902 34.2096ZM15.7345 40.3012C13.3709 39.889 11.7059 36.9313 10.0961 34.0698C9.09455 32.2898 8.12821 30.5732 6.96343 29.3579C14.646 28.4808 19.2793 30.7211 20.9748 33.0835C21.6593 34.0381 21.9458 35.0902 21.8343 36.1599C19.9262 35.0397 18.0135 34.3493 16.7478 33.9677C16.2511 33.8174 15.7274 34.0992 15.5771 34.5959C15.428 35.0925 15.7086 35.6162 16.2053 35.7665C17.4394 36.1387 19.365 36.835 21.2167 37.9787C19.0785 39.7798 17.2339 40.5618 15.7345 40.3012ZM14.821 14.6468C14.821 7.72151 20.4558 2.08668 27.381 2.08668C34.3063 2.08668 39.9411 7.72151 39.9411 14.6468C39.9411 21.572 34.3063 27.2068 27.381 27.2068C20.4558 27.2068 14.821 21.572 14.821 14.6468ZM2.29142 58.3293C2.74112 55.5818 5.1329 53.4777 8.00609 53.4777C8.73643 53.4777 9.44797 53.6115 10.1208 53.8757C10.554 54.046 11.0484 53.8722 11.2797 53.4683C12.3904 51.5274 14.4687 50.3215 16.702 50.3215C17.9595 50.3215 19.1701 50.6937 20.2057 51.397C20.4171 51.5403 20.6765 51.592 20.9255 51.5391C21.1744 51.4875 21.3928 51.336 21.5278 51.1199C22.8264 49.0558 25.0562 47.8241 27.4902 47.8241C29.882 47.8241 32.0895 49.0229 33.3951 51.0307C33.6769 51.464 34.2558 51.5884 34.6902 51.309C35.6953 50.6632 36.8601 50.3227 38.0601 50.3227C40.2934 50.3227 42.3717 51.5286 43.4824 53.4695C43.7137 53.8745 44.2069 54.0471 44.6413 53.8769C45.3141 53.6127 46.0257 53.4788 46.756 53.4788C49.6292 53.4788 52.021 55.583 52.4707 58.3305H2.29142V58.3293ZM38.1634 14.6468C38.1634 8.70077 33.3259 3.86437 27.381 3.86437C21.4362 3.86437 16.5987 8.70194 16.5987 14.6468C16.5987 20.5916 21.4362 25.4291 27.381 25.4291C33.3259 25.4291 38.1634 20.5916 38.1634 14.6468ZM18.4773 14.6468C18.4773 9.73756 22.4718 5.74304 27.381 5.74304C32.2902 5.74304 36.2848 9.73756 36.2848 14.6468C36.2848 19.556 32.2902 23.5505 27.381 23.5505C22.4718 23.5505 18.4773 19.556 18.4773 14.6468ZM27.381 21.1857C26.8621 21.1857 26.4417 20.7653 26.4417 20.2464V19.7603C25.6632 19.6264 24.954 19.1896 24.482 18.5368C24.1779 18.1164 24.2718 17.5293 24.6922 17.2252C25.1126 16.9211 25.6996 17.0151 26.0037 17.4354C26.2257 17.7419 26.5803 17.925 26.9525 17.925H27.6171C28.2617 17.925 28.7865 17.4002 28.7865 16.7556C28.7865 16.1109 28.2617 15.5861 27.6171 15.5861H27.145C25.4636 15.5861 24.0969 14.2182 24.0969 12.5379C24.0969 11.0996 25.0985 9.8902 26.4417 9.57083V9.04597C26.4417 8.52699 26.8621 8.10664 27.381 8.10664C27.9 8.10664 28.3204 8.52699 28.3204 9.04597V9.53208C29.0989 9.66593 29.8081 10.1027 30.2801 10.7556C30.5842 11.1759 30.4902 11.763 30.0699 12.0671C29.6495 12.3712 29.0625 12.2773 28.7583 11.8569C28.5364 11.5505 28.1818 11.3673 27.8096 11.3673H27.145C26.5004 11.3673 25.9756 11.8922 25.9756 12.5368C25.9756 13.1814 26.5004 13.7062 27.145 13.7062H27.6171C29.2985 13.7062 30.6652 15.0742 30.6652 16.7544C30.6652 18.1927 29.6636 19.4021 28.3204 19.7215V20.2464C28.3204 20.7653 27.9 21.1857 27.381 21.1857ZM44.1423 7.03932L47.2174 3.52621C47.3959 3.3219 47.6531 3.20566 47.9243 3.20566C48.1955 3.20566 48.4527 3.32308 48.6311 3.52621L51.7075 7.03932C52.0491 7.42914 52.0092 8.02327 51.6194 8.36495C51.2296 8.70664 50.6354 8.66672 50.2938 8.27689L48.8648 6.64362V22.3446C48.8648 22.8636 48.4444 23.2839 47.9255 23.2839C47.4065 23.2839 46.9861 22.8636 46.9861 22.3446V6.64362L45.5572 8.27689C45.3716 8.48942 45.111 8.59744 44.8503 8.59744C44.6307 8.59744 44.41 8.52112 44.2315 8.36495C43.8405 8.02327 43.8006 7.42914 44.1423 7.03932ZM3.05463 7.03932L6.12977 3.52621C6.30825 3.3219 6.56539 3.20566 6.83662 3.20566C7.10785 3.20566 7.365 3.32308 7.54347 3.52621L10.6186 7.03932C10.9603 7.42914 10.9204 8.02327 10.5306 8.36495C10.1407 8.70664 9.5466 8.66672 9.20492 8.27689L7.77596 6.64362V22.3446C7.77596 22.8636 7.3556 23.2839 6.83662 23.2839C6.31764 23.2839 5.89729 22.8636 5.89729 22.3446V6.64362L4.46832 8.27689C4.28281 8.48942 4.02214 8.59744 3.76147 8.59744C3.54191 8.59744 3.32116 8.52112 3.14269 8.36495C2.75169 8.02327 2.71294 7.42914 3.05463 7.03932Z" fill="#199ADC"/>
</svg>
