<svg width="61" height="61" viewBox="0 0 61 61" fill="none" xmlns="http://www.w3.org/2000/svg">
<path d="M10.094 36.6801C10.4944 36.9487 10.9472 37.077 11.3952 37.077C12.1511 37.077 12.8932 36.7111 13.3452 36.0345C17.1324 30.3642 23.4632 26.9789 30.2801 26.9789C37.0769 26.9789 43.3973 30.3487 47.1871 35.993C47.9098 37.0691 49.3661 37.3546 50.44 36.6306C51.514 35.9066 51.7989 34.4473 51.0763 33.3713C48.0483 28.8618 43.707 25.5343 38.746 23.7543C41.7211 21.3192 43.624 17.6162 43.624 13.476C43.624 6.15986 37.6837 0.207886 30.3818 0.207886C23.08 0.207886 17.1396 6.15986 17.1396 13.476C17.1396 17.5865 19.0149 21.2662 21.9532 23.7019C16.9146 25.4754 12.508 28.8432 9.44957 33.4224C8.72969 34.5003 9.0182 35.9588 10.094 36.6801ZM30.3818 4.90456C35.0989 4.90456 38.9365 8.74973 38.9365 13.476C38.9365 18.2022 35.0989 22.0474 30.3818 22.0474C25.6648 22.0474 21.8271 18.2022 21.8271 13.476C21.8271 8.74973 25.6648 4.90456 30.3818 4.90456ZM39.7285 41.7887L36.2344 44.3142C35.7146 44.69 35.4969 45.3561 35.6956 45.9641L37.1027 50.0504C37.1621 50.2324 37.1849 50.4102 37.1773 50.5797C37.1275 51.6772 35.7546 52.428 34.7478 51.7002L31.2538 49.174C30.9939 48.9861 30.6879 48.8922 30.382 48.8922C30.076 48.8922 29.77 48.9861 29.5101 49.174L26.0161 51.7002C25.0093 52.428 23.6298 51.6772 23.5862 50.5797C23.5796 50.4102 23.603 50.2323 23.6624 50.0504L25.0682 45.9641C25.2668 45.3561 25.0492 44.69 24.5294 44.3142L21.0353 41.7887C19.8728 40.9485 20.4702 38.9554 21.9072 38.9554H26.226C26.8687 38.9554 27.4382 38.7076 27.6367 38.0996L28.9712 33.9868C29.1933 33.3071 29.7876 32.9672 30.382 32.9672C30.9763 32.9672 31.5706 33.3071 31.7927 33.9868L33.1272 38.0996C33.3258 38.7076 33.8952 38.9554 34.5379 38.9554H38.8567C40.2935 38.9554 40.891 40.9485 39.7285 41.7887ZM59.7675 50.0079L56.2735 52.5334C55.7536 52.9091 55.536 53.5752 55.7346 54.1832L57.1417 58.2696C57.2011 58.4516 57.224 58.6293 57.2164 58.7989C57.1666 59.8964 55.7937 60.6471 54.7868 59.9194L51.2929 57.3932C51.033 57.2053 50.727 57.1114 50.421 57.1114C50.115 57.1114 49.8091 57.2053 49.5491 57.3932L46.0552 59.9194C45.0483 60.6471 43.6689 59.8964 43.6253 58.7989C43.6186 58.6293 43.6421 58.4514 43.7015 58.2696L45.1073 54.1832C45.3059 53.5752 45.0883 52.9091 44.5684 52.5334L41.0744 50.0079C39.9119 49.1677 40.5093 47.1746 41.9462 47.1746H46.2651C46.9077 47.1746 47.4773 46.9268 47.6758 46.3188L49.0103 42.206C49.2324 41.5263 49.8266 41.1864 50.421 41.1864C51.0154 41.1864 51.6096 41.5263 51.8317 42.206L53.1662 46.3188C53.3649 46.9268 53.9343 47.1746 54.5769 47.1746H58.8958C60.3326 47.1746 60.93 49.1677 59.7675 50.0079ZM19.6894 50.0079L16.1953 52.5334C15.6755 52.9091 15.4579 53.5752 15.6565 54.1832L17.0636 58.2696C17.123 58.4516 17.1459 58.6293 17.1382 58.7989C17.0884 59.8964 15.7156 60.6471 14.7087 59.9194L11.2146 57.3932C10.9547 57.2053 10.6487 57.1114 10.3428 57.1114C10.0368 57.1114 9.73082 57.2053 9.4709 57.3932L5.97695 59.9194C4.97008 60.6471 3.59066 59.8964 3.54707 58.7989C3.54039 58.6293 3.56383 58.4514 3.62324 58.2696L5.02902 54.1832C5.22766 53.5752 5.01004 52.9091 4.49019 52.5334L0.996133 50.0079C-0.166367 49.1677 0.431055 47.1746 1.86801 47.1746H6.18684C6.82949 47.1746 7.39902 46.9268 7.59754 46.3188L8.93207 42.206C9.15414 41.5263 9.7484 41.1864 10.3428 41.1864C10.9371 41.1864 11.5314 41.5263 11.7535 42.206L13.088 46.3188C13.2866 46.9268 13.8561 47.1746 14.4987 47.1746H18.8175C20.2545 47.1746 20.8519 49.1677 19.6894 50.0079Z" fill="#35D453"/>
</svg>
