<svg width="21" height="21" viewBox="0 0 21 21" fill="none" xmlns="http://www.w3.org/2000/svg">
<path d="M1.31832 0.886679C1.18422 0.847724 1.04209 0.845779 0.90698 0.881049C0.771871 0.916319 0.648824 0.987491 0.550883 1.08702C0.452942 1.18655 0.383756 1.31072 0.350661 1.44638C0.317566 1.58204 0.321795 1.72412 0.3629 1.85757L2.87216 10.0137H11.6587C11.8639 10.0137 12.0607 10.0952 12.2059 10.2403C12.351 10.3854 12.4325 10.5823 12.4325 10.7875C12.4325 10.9927 12.351 11.1896 12.2059 11.3347C12.0607 11.4798 11.8639 11.5613 11.6587 11.5613H2.87216L0.3629 19.7174C0.322038 19.8508 0.317995 19.9928 0.351199 20.1283C0.384402 20.2638 0.453617 20.3878 0.551519 20.4872C0.649421 20.5865 0.772369 20.6576 0.907351 20.6928C1.04233 20.7281 1.18433 20.7262 1.31832 20.6873C8.14341 18.7025 14.5795 15.567 20.3492 11.4159C20.4489 11.3442 20.5302 11.2498 20.5862 11.1406C20.6422 11.0313 20.6714 10.9103 20.6714 10.7875C20.6714 10.6647 20.6422 10.5437 20.5862 10.4344C20.5302 10.3252 20.4489 10.2308 20.3492 10.1592C14.5796 6.00764 8.1435 2.87175 1.31832 0.886679Z" fill="white"/>
</svg>
