<svg width="24" height="25" viewBox="0 0 24 25" fill="none" xmlns="http://www.w3.org/2000/svg">
<path d="M9.92848 13.9765L9.92848 16.027C9.92848 16.2604 10.4389 16.4242 10.7334 16.2008C10.7972 16.1512 10.8413 16.0916 10.8413 16.027L10.8413 13.9765C10.8413 13.7431 10.3309 13.5793 10.0365 13.8027C9.97265 13.8524 9.92848 13.9119 9.92848 13.9765ZM8.46597 13.9765L8.46597 16.027C8.46597 16.2604 8.97638 16.4242 9.27085 16.2008C9.33465 16.1512 9.37882 16.0916 9.37882 16.027L9.37882 13.9765C9.37882 13.7431 8.86841 13.5793 8.57394 13.8027C8.50523 13.8524 8.46597 13.9119 8.46597 13.9765ZM6.99855 13.9765L6.99855 16.027C6.99855 16.2604 7.50896 16.4242 7.80342 16.2008C7.86723 16.1512 7.9114 16.0916 7.9114 16.027L7.9114 13.9765C7.9114 13.7431 7.40099 13.5793 7.10652 13.8027C7.04272 13.8524 6.99855 13.9119 6.99855 13.9765ZM17.56 9.62218L17.56 11.6727C17.56 11.9061 18.0705 12.0699 18.3649 11.8465C18.4287 11.7969 18.4729 11.7373 18.4729 11.6727L18.4729 9.62218C18.4729 9.38882 17.9625 9.22498 17.668 9.4484C17.5993 9.49805 17.56 9.5626 17.56 9.62218ZM16.0632 9.62218L16.0632 11.6727C16.0632 11.9061 16.5736 12.0699 16.8681 11.8465C16.9319 11.7969 16.976 11.7373 16.976 11.6727L16.976 9.62218C16.976 9.38882 16.4656 9.22498 16.1712 9.4484C16.1024 9.49805 16.0632 9.5626 16.0632 9.62218ZM14.5712 9.62218L14.5712 11.6727C14.5712 11.9061 15.0816 12.0699 15.3761 11.8465C15.4448 11.7969 15.4841 11.7373 15.4841 11.6727L15.4841 9.62218C15.4841 9.38882 14.9737 9.22498 14.6792 9.4484C14.6105 9.49805 14.5712 9.5626 14.5712 9.62218ZM12.9909 9.62218L12.9909 11.6727C12.9909 11.9061 13.5013 12.0699 13.7958 11.8465C13.8596 11.7969 13.9038 11.7373 13.9038 11.6727L13.9038 9.62218C13.9038 9.38882 13.3934 9.22498 13.0989 9.4484C13.0351 9.49805 12.9909 9.5626 12.9909 9.62218ZM11.4548 9.62218L11.4548 11.6727C11.4548 11.9061 11.9652 12.0699 12.2597 11.8465C12.3284 11.7969 12.3676 11.7373 12.3676 11.6727L12.3676 9.62218C12.3676 9.38882 11.8572 9.22498 11.5628 9.4484C11.4941 9.49805 11.4548 9.5626 11.4548 9.62218ZM16.0632 5.27284L16.0632 7.32835C16.0632 7.5617 16.5736 7.72555 16.8681 7.50212C16.9319 7.45247 16.976 7.39289 16.976 7.32835L16.976 5.27284C16.976 5.03948 16.4656 4.87564 16.1712 5.09906C16.1024 5.14871 16.0632 5.20829 16.0632 5.27284ZM14.5761 5.27284L14.5761 7.32835C14.5761 7.5617 15.0865 7.72555 15.381 7.50212C15.4448 7.45247 15.489 7.39289 15.489 7.32835L15.489 5.27284C15.489 5.03948 14.9786 4.87564 14.6841 5.09906C14.6203 5.14871 14.5761 5.20829 14.5761 5.27284ZM17.56 5.27284L17.56 7.32835C17.56 7.5617 18.0705 7.72555 18.3649 7.50212C18.4287 7.45247 18.4729 7.39289 18.4729 7.32835L18.4729 5.27284C18.4729 5.03948 17.9625 4.87564 17.668 5.09906C17.5993 5.14871 17.56 5.20829 17.56 5.27284ZM20.5194 22.1588C22.4629 20.1927 22.4629 17.0051 20.5194 15.034C18.576 13.0679 15.4203 13.0679 13.4768 15.034C11.5333 17.0002 11.5333 20.1927 13.4768 22.1588C15.4203 24.125 18.576 24.125 20.5194 22.1588ZM19.1453 13.5048C20.0581 13.897 20.8433 14.5375 21.4225 15.3419L21.4225 2.16971C21.4225 1.96118 21.2507 1.7874 21.0446 1.7874L19.5232 1.7874C19.317 1.7874 19.1453 1.96118 19.1453 2.16971L19.1453 13.5048ZM12.8584 14.9794C13.1283 14.6617 13.4375 14.3737 13.7713 14.1304C13.7713 13.9815 13.7958 13.902 13.6633 13.8027C13.3688 13.5793 12.8584 13.7431 12.8584 13.9765L12.8584 14.9794ZM12.0339 16.2703C12.1026 16.1164 12.1811 15.9675 12.2646 15.8235L12.2646 13.9765C12.2646 13.7431 11.7542 13.5793 11.4597 13.8027C11.3959 13.8524 11.3517 13.9169 11.3517 13.9765L11.3517 16.027C11.3517 16.2356 11.7345 16.3796 12.0339 16.2703ZM18.7036 19.3834C18.7036 19.7111 18.2128 19.7111 18.2128 19.3834L18.2128 18.4351C18.2128 18.1223 18.0067 17.8343 17.7073 17.8343C16.8828 17.8343 17.6926 19.86 16.2938 19.86C15.7491 19.86 15.3417 19.3933 15.3025 18.8472L15.0031 18.8472C14.6792 18.8472 14.6792 18.3507 15.0031 18.3507L15.3025 18.3507L15.3025 17.6407C15.3025 17.313 15.7933 17.313 15.7933 17.6407L15.7933 18.7628C15.7933 19.0706 15.9994 19.3635 16.2988 19.3635C17.1233 19.3635 16.3135 17.3378 17.7122 17.3378C18.257 17.3378 18.6692 17.8095 18.7036 18.3507L19.0029 18.3507C19.3268 18.3507 19.3268 18.8472 19.0029 18.8472L18.7036 18.8472L18.7036 19.3834ZM14.213 21.4141C12.6719 19.8551 12.6719 17.3328 14.213 15.7788C15.754 14.2247 18.2422 14.2247 19.7833 15.7788C21.3243 17.3378 21.3243 19.86 19.7833 21.4141C18.2471 22.9731 15.754 22.9731 14.213 21.4141ZM13.5504 18.5989C13.5504 20.5253 15.0964 22.0843 17.0006 22.0843C18.9048 22.0843 20.4507 20.5253 20.4507 18.5989C20.4507 16.6725 18.9048 15.1085 17.0006 15.1085C15.0914 15.1085 13.5504 16.6725 13.5504 18.5989ZM9.07453 9.30938C10.6941 7.67093 10.6941 5.01962 9.07453 3.38117C7.45497 1.74272 4.82932 1.74272 3.21467 3.38117C1.59511 5.01962 1.59511 7.67093 3.21467 9.30939C4.83423 10.9478 7.45988 10.9478 9.07453 9.30938ZM10.7824 6.34528C10.7824 9.30442 8.1028 11.5138 5.24648 10.9429L5.24648 17.6655C5.24648 17.8542 5.39862 18.0081 5.58512 18.0081L11.5628 18.0081C11.6069 17.591 11.6953 17.1888 11.8229 16.8065C11.5431 16.8065 11.283 16.7172 11.0965 16.5434C10.7137 16.9009 10.0266 16.8959 9.65365 16.5235C9.27575 16.9009 8.56904 16.9009 8.19114 16.5235C7.62675 17.0846 6.51268 16.7569 6.51268 16.032L6.51268 13.9815C6.51268 13.2516 7.63165 12.9289 8.19114 13.4899C8.56904 13.1126 9.27575 13.1126 9.65365 13.4899C10.0266 13.1175 10.7137 13.1126 11.0965 13.4701C11.4892 13.1076 12.1959 13.1225 12.559 13.5147C12.9369 13.1126 13.678 13.1076 14.0608 13.5098C14.37 13.1821 14.9246 13.1225 15.327 13.336C16.4018 12.9885 17.5748 12.9885 18.6496 13.331L18.6496 12.2586C18.2471 12.5565 17.6091 12.5217 17.2656 12.1593C16.8877 12.5565 16.1515 12.5565 15.7687 12.1593C15.3712 12.5714 14.5909 12.5515 14.2326 12.1096C13.8645 12.5615 13.0596 12.5714 12.6768 12.1345C12.1419 12.7402 10.9591 12.4324 10.9591 11.6777L10.9591 9.62715C10.9591 8.87246 12.137 8.56463 12.6768 9.17037C13.0645 8.73344 13.8694 8.74338 14.2326 9.19519C14.5909 8.7533 15.3712 8.73344 15.7687 9.14554C16.1515 8.74834 16.8828 8.74834 17.2656 9.14554C17.6091 8.78309 18.2471 8.74834 18.6496 9.04624L18.6496 7.89932C18.2471 8.19722 17.6091 8.16247 17.2656 7.80002C16.8877 8.19722 16.1564 8.20219 15.7736 7.80499C15.219 8.37596 14.0854 8.0582 14.0854 7.32338L14.0854 5.26787C14.0854 4.53305 15.219 4.21032 15.7736 4.78627C16.1564 4.39403 16.8877 4.39403 17.2656 4.79123C17.6091 4.42878 18.2471 4.39403 18.6496 4.69193L18.6496 3.28684L9.66347 3.28684C10.3604 4.11103 10.7824 5.1785 10.7824 6.34528ZM7.61693 7.00562C7.61693 7.33331 7.12615 7.33331 7.12615 7.00562L7.12615 6.21122C7.12615 5.9729 6.96911 5.74451 6.73844 5.74451C6.10043 5.74451 6.75807 7.44751 5.55076 7.44751C5.08943 7.44751 4.73117 7.05527 4.68209 6.59849L4.46615 6.59849C4.14224 6.59849 4.14224 6.10199 4.46615 6.10199L4.67718 6.10199L4.67718 5.54591C4.67718 5.21822 5.16796 5.21822 5.16796 5.54591L5.16796 6.48926C5.16796 6.72758 5.32501 6.95597 5.55076 6.95597C6.18877 6.95597 5.53113 5.25298 6.73844 5.25298C7.20468 5.25298 7.56294 5.64521 7.60711 6.10199L7.82306 6.10199C8.14697 6.10199 8.14697 6.59849 7.82306 6.59849L7.61202 6.59849L7.61202 7.00562L7.61693 7.00562Z" fill="white"/>
</svg>
