<svg width="24" height="25" viewBox="0 0 24 25" fill="none" xmlns="http://www.w3.org/2000/svg">
<path d="M15.8057 2.75484L15.8057 3.80579C15.8057 3.91088 15.8407 4.01598 15.9458 4.08604L17.3471 5.20706L15.9458 6.32807C15.8757 6.39813 15.8057 6.50323 15.8057 6.60832L15.8057 7.09877C15.9808 7.06374 15.8757 7.09877 19.7642 7.09877C20.0095 7.09877 20.2547 7.16883 20.4649 7.27393L20.4649 1.87904C20.4649 1.52873 20.1846 1.24847 19.8343 1.24847L17.3471 1.24847C16.5063 1.21344 15.8057 1.91408 15.8057 2.75484Z" fill="white"/>
<path d="M15.8056 18.0285C15.8056 18.1336 15.7356 18.3788 15.9458 18.5189L17.347 19.6399L15.9458 20.7609C15.8757 20.831 15.8056 20.9361 15.8056 21.0412L15.8056 22.0921C15.8056 22.9329 16.5063 23.6335 17.347 23.6335L19.8343 23.6335C20.1846 23.6335 20.4649 23.3533 20.4649 23.003L20.4649 17.8533C20.2547 17.9584 20.0094 18.0285 19.7642 18.0285C15.8407 18.0635 16.0158 18.0635 15.8056 18.0285Z" fill="white"/>
<path d="M11.1816 19.64C11.1816 20.726 12.0925 21.6368 13.1784 21.6368C14.2644 21.6368 15.1753 20.761 15.1753 19.64C15.1753 18.519 14.2995 17.6432 13.1784 17.6432C12.0925 17.6783 11.1816 18.5541 11.1816 19.64Z" fill="white"/>
<path d="M14.2646 9.55084L14.2646 10.812C14.2646 10.9171 14.2997 11.0222 14.4048 11.0922L16.1914 12.5285L14.4048 13.9648C14.3347 14.0349 14.2646 14.14 14.2646 14.2451L14.2646 15.5413C14.2646 16.5222 15.0704 17.3629 16.0863 17.3629L19.7997 17.3629C20.185 17.3629 20.5003 17.0476 20.5003 16.6623L20.5003 8.42983C20.5003 8.04448 20.185 7.7292 19.7997 7.7292L16.0863 7.7292C15.0704 7.76423 14.2646 8.56996 14.2646 9.55084ZM18.7837 12.2133L18.7837 12.9139L18.0831 12.9139L18.0831 12.2133L18.7837 12.2133Z" fill="white"/>
<path d="M15.1753 5.17177C15.1753 4.08579 14.2995 3.17496 13.1784 3.17496C12.0925 3.17496 11.1816 4.08579 11.1816 5.17177C11.1816 6.25775 12.0925 7.16858 13.1784 7.16858C14.2644 7.16858 15.1753 6.29279 15.1753 5.17177Z" fill="white"/>
<path d="M12.1621 12.5636C12.1621 11.4776 11.2863 10.5668 10.1653 10.5668C9.04425 10.5668 8.16846 11.4426 8.16846 12.5636C8.16846 13.6496 9.04425 14.5604 10.1653 14.5604C11.2863 14.5604 12.1621 13.6496 12.1621 12.5636Z" fill="white"/>
<path d="M8.44903 15.8215C8.9745 16.1017 9.57004 16.2419 10.1656 16.2419C12.1974 16.2419 13.8789 14.5954 13.8789 12.5635C13.8789 10.5317 12.2325 8.85018 10.1656 8.85018C8.09871 8.85018 6.45222 10.4967 6.45222 12.5635C6.45222 13.1941 6.59235 13.7546 6.8726 14.2801L4.31529 16.8374C3.8949 17.2578 3.8949 17.9935 4.31529 18.3788C4.73567 18.7992 5.4363 18.7992 5.85668 18.3788L8.44903 15.8215ZM7.18788 12.5635C7.18788 10.9171 8.51909 9.55082 10.2006 9.55082C11.8821 9.55082 13.2133 10.882 13.2133 12.5635C13.2133 14.21 11.8821 15.5412 10.2006 15.5412C8.51909 15.5412 7.18788 14.175 7.18788 12.5635Z" fill="white"/>
</svg>
