<svg width="24" height="25" viewBox="0 0 24 25" fill="none" xmlns="http://www.w3.org/2000/svg">
<path d="M17.8506 5.14061L17.8506 19.6831C17.8506 20.4656 18.1591 21.216 18.7084 21.7693C19.2576 22.3226 20.0025 22.6334 20.7793 22.6334C21.556 22.6334 22.3009 22.3226 22.8502 21.7693C23.3994 21.216 23.7079 20.4656 23.7079 19.6831L23.7079 5.14061C23.7079 4.35813 23.3994 3.6077 22.8502 3.0544C22.3009 2.5011 21.556 2.19027 20.7793 2.19027C20.0025 2.19027 19.2576 2.5011 18.7084 3.0544C18.1591 3.6077 17.8506 4.35813 17.8506 5.14061ZM21.91 19.6719C21.91 19.8972 21.8437 20.1175 21.7194 20.3049C21.5951 20.4922 21.4185 20.6382 21.2118 20.7245C21.0052 20.8107 20.7778 20.8333 20.5584 20.7893C20.339 20.7454 20.1375 20.6368 19.9793 20.4775C19.8212 20.3182 19.7135 20.1152 19.6698 19.8942C19.6262 19.6732 19.6486 19.4441 19.7342 19.2359C19.8198 19.0277 19.9647 18.8498 20.1507 18.7246C20.3367 18.5994 20.5554 18.5326 20.779 18.5326C20.9276 18.5325 21.0746 18.562 21.2119 18.6192C21.3491 18.6765 21.4738 18.7604 21.5788 18.8662C21.6838 18.972 21.7671 19.0976 21.824 19.2358C21.8808 19.3741 21.91 19.5223 21.91 19.6719ZM21.91 16.0418C21.91 16.2671 21.8437 16.4874 21.7194 16.6747C21.5951 16.8621 21.4185 17.0081 21.2118 17.0943C21.0052 17.1806 20.7778 17.2031 20.5584 17.1592C20.339 17.1152 20.1375 17.0067 19.9793 16.8474C19.8212 16.688 19.7135 16.485 19.6698 16.264C19.6262 16.043 19.6486 15.8139 19.7342 15.6058C19.8198 15.3976 19.9647 15.2196 20.1507 15.0945C20.3367 14.9693 20.5554 14.9024 20.779 14.9024C20.9276 14.9024 21.0746 14.9319 21.2119 14.9891C21.3491 15.0463 21.4738 15.1303 21.5788 15.2361C21.6838 15.3419 21.7671 15.4675 21.824 15.6057C21.8808 15.744 21.91 15.8921 21.91 16.0418ZM21.91 12.4116C21.91 12.637 21.8437 12.8572 21.7194 13.0446C21.5951 13.2319 21.4185 13.378 21.2118 13.4642C21.0052 13.5504 20.7778 13.573 20.5584 13.529C20.339 13.4851 20.1375 13.3766 19.9793 13.2172C19.8212 13.0579 19.7135 12.8549 19.6698 12.6339C19.6262 12.4129 19.6486 12.1838 19.7342 11.9756C19.8198 11.7674 19.9647 11.5895 20.1507 11.4643C20.3367 11.3391 20.5554 11.2723 20.779 11.2723C20.9276 11.2723 21.0746 11.3017 21.2119 11.359C21.3491 11.4162 21.4738 11.5001 21.5788 11.6059C21.6838 11.7117 21.7671 11.8373 21.824 11.9756C21.8808 12.1138 21.91 12.262 21.91 12.4116ZM21.91 8.78149C21.91 9.00683 21.8437 9.2271 21.7194 9.41446C21.5951 9.60182 21.4185 9.74785 21.2118 9.83408C21.0052 9.92031 20.7778 9.94288 20.5584 9.89892C20.339 9.85496 20.1375 9.74645 19.9793 9.58711C19.8212 9.42778 19.7135 9.22477 19.6698 9.00377C19.6262 8.78276 19.6486 8.55368 19.7342 8.3455C19.8198 8.13732 19.9647 7.95938 20.1507 7.83419C20.3367 7.709 20.5554 7.64218 20.779 7.64218C21.079 7.64219 21.3666 7.76223 21.5787 7.97589C21.7908 8.18954 21.91 8.47933 21.91 8.78149ZM21.91 5.15136C21.91 5.37669 21.8437 5.59696 21.7194 5.78432C21.5951 5.97168 21.4185 6.11771 21.2118 6.20395C21.0052 6.29018 20.7778 6.31274 20.5584 6.26878C20.339 6.22482 20.1375 6.11631 19.9793 5.95698C19.8212 5.79764 19.7135 5.59463 19.6698 5.37363C19.6262 5.15262 19.6486 4.92355 19.7342 4.71536C19.8198 4.50718 19.9647 4.32924 20.1507 4.20406C20.3367 4.07886 20.5554 4.01204 20.779 4.01204C21.079 4.01205 21.3666 4.13209 21.5787 4.34575C21.7908 4.55941 21.91 4.8492 21.91 5.15136Z" fill="white"/>
<path d="M0.999999 6.59886L1 22.6334L2.77751 22.6334L2.77751 6.59886L3.86544 6.59886C4.04833 6.59886 4.22373 6.52567 4.35305 6.39539C4.48237 6.26511 4.55503 6.08841 4.55503 5.90417L4.55503 4.95417L5.92375 4.95417L5.92375 15.9639C5.92375 16.1123 5.98228 16.2546 6.08645 16.3596C6.19062 16.4645 6.33191 16.5235 6.47922 16.5235L8.36402 16.5235L8.36402 19.534C8.36402 19.6075 8.37838 19.6803 8.4063 19.7482C8.43421 19.816 8.47513 19.8777 8.52671 19.9297C8.57829 19.9817 8.63953 20.0229 8.70692 20.051C8.77431 20.0791 8.84654 20.0936 8.91949 20.0936L10.305 20.0936C10.4521 20.0933 10.5931 20.0343 10.6971 19.9293C10.8011 19.8244 10.8594 19.6822 10.8594 19.534C10.8594 19.3858 10.8011 19.2436 10.6971 19.1387C10.5931 19.0338 10.4521 18.9747 10.305 18.9744L9.47497 18.9744L9.47497 12.9533L10.305 12.9533C10.4523 12.9533 10.5936 12.8944 10.6977 12.7895C10.8019 12.6845 10.8604 12.5422 10.8604 12.3938C10.8604 12.2454 10.8019 12.103 10.6977 11.9981C10.5936 11.8932 10.4523 11.8342 10.305 11.8342L8.91949 11.8342C8.84654 11.8342 8.77431 11.8487 8.70691 11.8768C8.63952 11.9049 8.57828 11.9461 8.5267 11.9981C8.47512 12.0501 8.43421 12.1117 8.40629 12.1796C8.37838 12.2475 8.36401 12.3203 8.36401 12.3938L8.36401 15.4043L7.0347 15.4043L7.0347 4.39458C7.0347 4.3211 7.02033 4.24833 6.99242 4.18044C6.9645 4.11254 6.92358 4.05086 6.872 3.9989C6.82042 3.94693 6.75919 3.90571 6.6918 3.87759C6.6244 3.84947 6.55217 3.835 6.47922 3.835L4.55503 3.835L4.55503 2.88495C4.55503 2.70071 4.48237 2.52401 4.35305 2.39373C4.22373 2.26345 4.04833 2.19026 3.86544 2.19026L0.999999 2.19026L0.999999 6.59886Z" fill="white"/>
<path d="M16.9709 6.65752C16.9709 6.56834 16.9535 6.48004 16.9196 6.39765C16.8858 6.31525 16.8361 6.24039 16.7735 6.17733C16.7109 6.11427 16.6366 6.06425 16.5548 6.03012C16.473 5.99599 16.3854 5.97843 16.2968 5.97843L11.9256 5.97843C11.7468 5.97843 11.5753 6.04998 11.4489 6.17733C11.3225 6.30469 11.2515 6.47742 11.2515 6.65752L11.2515 11.0611C11.2515 11.2412 11.3225 11.414 11.4489 11.5413C11.5753 11.6687 11.7468 11.7402 11.9256 11.7402L16.2968 11.7402C16.3854 11.7402 16.473 11.7227 16.5548 11.6885C16.6366 11.6544 16.7109 11.6044 16.7735 11.5413C16.8361 11.4783 16.8858 11.4034 16.9196 11.321C16.9535 11.2386 16.9709 11.1503 16.9709 11.0611L16.9709 6.65752ZM13.6668 9.49508L13.6668 8.22358C13.6668 8.10486 13.7136 7.99099 13.797 7.90703C13.8803 7.82308 13.9933 7.77592 14.1112 7.77592C14.2291 7.77592 14.3421 7.82308 14.4254 7.90703C14.5088 7.99099 14.5556 8.10486 14.5556 8.22358L14.5556 9.49508C14.5556 9.61381 14.5088 9.72768 14.4254 9.81163C14.3421 9.89559 14.2291 9.94275 14.1112 9.94275C13.9933 9.94275 13.8803 9.89559 13.797 9.81163C13.7136 9.72768 13.6668 9.61381 13.6668 9.49508Z" fill="white"/>
<path d="M16.9709 13.7621C16.9709 13.673 16.9535 13.5847 16.9196 13.5023C16.8858 13.4199 16.8361 13.345 16.7735 13.282C16.7109 13.2189 16.6366 13.1689 16.5548 13.1347C16.473 13.1006 16.3854 13.0831 16.2968 13.0831L11.9256 13.0831C11.7468 13.0831 11.5753 13.1546 11.4489 13.282C11.3225 13.4093 11.2515 13.582 11.2515 13.7621L11.2515 18.1658C11.2515 18.3459 11.3225 18.5186 11.4489 18.6459C11.5753 18.7733 11.7468 18.8448 11.9256 18.8448L16.2968 18.8448C16.3854 18.8448 16.473 18.8273 16.5548 18.7932C16.6366 18.759 16.7109 18.709 16.7735 18.6459C16.8361 18.5829 16.8858 18.508 16.9196 18.4256C16.9535 18.3432 16.9709 18.2549 16.9709 18.1658L16.9709 13.7621ZM13.6668 16.5997L13.6668 15.3282C13.6668 15.2095 13.7136 15.0956 13.797 15.0117C13.8803 14.9277 13.9933 14.8805 14.1112 14.8805C14.2291 14.8805 14.3421 14.9277 14.4254 15.0117C14.5088 15.0956 14.5556 15.2095 14.5556 15.3282L14.5556 16.5997C14.5556 16.7184 14.5088 16.8323 14.4254 16.9162C14.3421 17.0002 14.2291 17.0474 14.1112 17.0474C13.9933 17.0474 13.8803 17.0002 13.797 16.9162C13.7136 16.8323 13.6668 16.7184 13.6668 16.5997Z" fill="white"/>
</svg>
