<svg width="24" height="25" viewBox="0 0 24 25" fill="none" xmlns="http://www.w3.org/2000/svg">
<path fill-rule="evenodd" clip-rule="evenodd" d="M9.20182 20.41L13.051 20.41C13.4064 21.0568 14.5315 21.145 15.0645 20.6158L17.9662 16.4996C18.1735 16.235 17.7589 15.941 17.5517 16.2056L14.65 20.2924C13.9689 20.9392 12.8734 19.8513 13.4656 18.9987C14.6203 17.3817 17.2556 12.7657 19.5947 12.7657L22.7333 12.7657L22.7333 17.2346C22.0819 17.2346 22.2004 17.2346 21.5786 17.2346C19.8612 17.2346 17.9662 22.321 15.8639 22.321L9.20182 22.321C7.95822 22.321 7.95822 20.41 9.20182 20.41ZM1 12.1188C0.999999 8.91412 3.63524 6.29741 6.86267 6.29741C10.1197 6.29741 12.7253 8.91412 12.7253 12.1188C12.7253 15.353 10.1197 17.9697 6.86267 17.9697C3.63524 17.9697 1 15.353 1 12.1188ZM1.74024 12.1188C1.74024 9.32573 4.04977 7.06185 6.86267 7.06185C9.70518 7.06185 11.9851 9.32573 11.9851 12.1188C11.9851 14.9414 9.70518 17.2052 6.86267 17.2052C4.04977 17.2052 1.74024 14.9414 1.74024 12.1188ZM3.84251 13.2655L3.42797 13.2655C2.86539 13.2655 2.86539 12.2658 3.42797 12.2658L3.60563 12.2658C3.60563 12.1482 3.60563 12.06 3.60563 11.9424L3.42797 11.9424C2.86539 11.9424 2.86539 10.9428 3.42797 10.9428L3.87212 10.9428C3.93133 10.7664 4.02016 10.6194 4.1386 10.5018C4.4643 10.0608 4.93806 9.79615 5.44142 9.79615C6.004 9.79615 6.004 10.7958 5.44142 10.7958C5.17493 10.7958 4.93806 10.9428 4.7604 11.178C4.16821 11.9424 4.49391 13.4419 5.44142 13.4419C6.06321 13.4419 6.44814 12.7951 6.44814 12.1188C6.44814 10.9134 7.21798 9.79615 8.28392 9.79615C8.96494 9.79615 9.55713 10.2666 9.88283 10.9428L10.2974 10.9428C10.8599 10.9428 10.8599 11.9424 10.2974 11.9424L10.1197 11.9424C10.1197 12.06 10.1197 12.1482 10.1197 12.2658L10.2974 12.2658C10.8599 12.2658 10.8599 13.2655 10.2974 13.2655L9.91244 13.2655C9.82361 13.4419 9.73479 13.6183 9.61635 13.7653C9.26103 14.2063 8.78728 14.4709 8.28392 14.4709C7.72134 14.4709 7.72134 13.4419 8.28392 13.4419C8.55041 13.4419 8.78728 13.3243 8.96494 13.0891C9.17221 12.8245 9.26103 12.4717 9.26103 12.1188C9.26103 11.472 8.87611 10.7958 8.28392 10.7958C7.69173 10.7958 7.30681 11.472 7.30681 12.1188C7.30681 13.3537 6.53697 14.4709 5.44142 14.4709C4.7604 14.4709 4.1386 13.9711 3.84251 13.2655ZM9.20181 3.85712L13.051 3.85712C13.4064 3.18089 14.5315 3.12209 15.0645 3.65131L17.9662 7.76747C18.1735 8.03208 17.7589 8.32609 17.5517 8.03208L14.65 3.97472C13.9689 3.3279 12.8734 4.38634 13.4656 5.26837C14.6203 6.88544 17.2556 11.5014 19.5947 11.5014L22.7333 11.5014L22.7333 7.03244C22.0819 7.03244 22.2004 7.03244 21.5786 7.03244C19.8612 7.03244 17.9662 1.94604 15.8639 1.94604L9.20181 1.94604C7.95822 1.94604 7.95822 3.85712 9.20181 3.85712Z" fill="white"/>
</svg>
