<svg width="24" height="25" viewBox="0 0 24 25" fill="none" xmlns="http://www.w3.org/2000/svg">
<path d="M18.0487 18.6976C17.844 18.5184 17.5962 18.3954 17.3297 18.3406C17.0632 18.2859 16.787 18.3013 16.5282 18.3854C16.2695 18.4695 16.037 18.6194 15.8535 18.8203C15.6701 19.0213 15.542 19.2665 15.4818 19.5318C15.4216 19.7972 15.4314 20.0736 15.5101 20.334C15.5889 20.5945 15.7339 20.83 15.9311 21.0175C16.1282 21.2051 16.3707 21.3382 16.6348 21.4038C16.8988 21.4694 17.1754 21.4654 17.4374 21.392C17.8154 21.2886 18.1393 21.0442 18.3423 20.709C18.5397 20.3933 18.6185 20.0178 18.5647 19.6494C18.5109 19.281 18.328 18.9437 18.0487 18.6976Z" fill="white"/>
<path d="M21.706 22.8571L21.706 22.9936C21.6946 23.1743 21.6119 23.343 21.4762 23.4628C21.3404 23.5825 21.1627 23.6435 20.9821 23.6322C20.8014 23.6208 20.6327 23.5382 20.513 23.4024C20.3932 23.2667 20.3323 23.0889 20.3435 22.9083C20.3435 22.9083 20.4084 21.5423 19.4385 20.8798C19.0866 20.6549 18.6744 20.5429 18.257 20.5588C18.1673 20.5615 18.078 20.5465 17.9941 20.5147C17.9102 20.4829 17.8334 20.4348 17.7681 20.3733C17.7027 20.3118 17.6502 20.238 17.6134 20.1562C17.5766 20.0743 17.5562 19.986 17.5535 19.8964C17.5508 19.8067 17.5658 19.7173 17.5977 19.6334C17.6295 19.5495 17.6776 19.4727 17.7391 19.4074C17.8006 19.3421 17.8744 19.2895 17.9562 19.2527C18.038 19.2159 18.1263 19.1956 18.216 19.1929C18.9175 19.1643 19.6103 19.3566 20.1966 19.7427C21.5967 20.6818 21.706 22.3653 21.706 22.8571Z" fill="white"/>
<path d="M16.9082 19.8759C16.9082 19.9565 16.8923 20.0362 16.8614 20.1106C16.8305 20.185 16.7851 20.2525 16.728 20.3093C16.6709 20.3662 16.6031 20.4111 16.5285 20.4416C16.454 20.4721 16.3741 20.4876 16.2936 20.4872L11.5127 20.4872C11.3832 20.4878 11.2557 20.454 11.1435 20.3892C11.0313 20.3244 10.9383 20.2309 10.8742 20.1184L6.46556 12.4827C6.38707 12.3425 6.36697 12.177 6.40959 12.022C6.45221 11.8671 6.55414 11.7352 6.6933 11.6548C6.83247 11.5745 6.99768 11.5521 7.15318 11.5927C7.30868 11.6332 7.44196 11.7334 7.52417 11.8714L11.5845 18.8993C11.6489 19.0116 11.7419 19.1049 11.8541 19.1696C11.9662 19.2344 12.0935 19.2684 12.223 19.2681L16.2936 19.2681C16.4557 19.2681 16.6112 19.3325 16.7258 19.4471C16.8404 19.5617 16.9048 19.7172 16.9048 19.8793L16.9082 19.8759Z" fill="white"/>
<path d="M15.7603 10.8776C15.9884 11.2727 16.1085 11.7208 16.1085 12.177C16.1085 12.6331 15.9884 13.0813 15.7603 13.4763L13.1923 17.9157C13.1671 17.9586 13.1537 18.0074 13.1533 18.0571C13.153 18.1069 13.1657 18.1558 13.1903 18.1991C13.2149 18.2423 13.2504 18.2784 13.2933 18.3036C13.3362 18.3287 13.385 18.3422 13.4348 18.3425L14.5378 18.3425C14.5825 18.3416 14.6265 18.3303 14.6662 18.3096C14.7059 18.2889 14.7402 18.2592 14.7666 18.223C15.0246 17.8689 15.3626 17.5807 15.7531 17.382C16.1435 17.1832 16.5754 17.0794 17.0136 17.079C17.3639 17.0791 17.7112 17.144 18.038 17.2703C18.1002 17.2944 18.169 17.2952 18.2317 17.2726C18.2945 17.25 18.347 17.2055 18.3795 17.1473L20.8416 12.8787C20.9676 12.662 21.0339 12.4157 21.0339 12.165C21.0339 11.9143 20.9676 11.6681 20.8416 11.4513L17.5736 5.78945C17.4475 5.57314 17.2672 5.39352 17.0503 5.26834C16.8335 5.14316 16.5878 5.07677 16.3374 5.07574L12.9225 5.07574C12.8733 5.07643 12.8251 5.08994 12.7826 5.11494C12.7402 5.13994 12.705 5.17557 12.6805 5.21831C12.6561 5.26105 12.6431 5.30943 12.6431 5.35868C12.643 5.40794 12.6557 5.45636 12.6801 5.49918L15.7603 10.8776Z" fill="white"/>
<path d="M2.183 11.4889C2.06311 11.6966 2 11.9321 2 12.1719C2 12.4117 2.06311 12.6472 2.183 12.8549L7.7151 22.4473C7.78814 22.5758 7.89393 22.6826 8.0217 22.757C8.14947 22.8313 8.29465 22.8705 8.44247 22.8705C8.59029 22.8705 8.73547 22.8313 8.86324 22.757C8.99101 22.6826 9.09679 22.5758 9.16984 22.4473L10.0884 20.8627C10.1121 20.8192 10.1244 20.7705 10.1244 20.721C10.1244 20.6715 10.1121 20.6228 10.0884 20.5793L5.673 12.9402C5.4718 12.5895 5.4166 12.1737 5.51934 11.7826C5.59732 11.4908 5.7601 11.2287 5.98708 11.0295C6.21406 10.8303 6.49504 10.7029 6.79446 10.6634C7.09388 10.6239 7.39828 10.6741 7.66915 10.8077C7.94001 10.9413 8.16517 11.1522 8.31612 11.4138L11.6866 17.2464C11.7116 17.2889 11.7473 17.3241 11.7902 17.3486C11.833 17.373 11.8814 17.3859 11.9308 17.3859C11.9801 17.3859 12.0285 17.373 12.0714 17.3486C12.1142 17.3241 12.1499 17.2889 12.1749 17.2464L14.7053 12.8549C14.8252 12.6472 14.8884 12.4117 14.8884 12.1719C14.8884 11.9321 14.8252 11.6966 14.7053 11.4889L9.16984 1.90336C9.09609 1.77572 8.99005 1.66974 8.86237 1.59606C8.7347 1.52237 8.58988 1.48358 8.44247 1.48358C8.29506 1.48358 8.15024 1.52237 8.02256 1.59606C7.89489 1.66974 7.78885 1.77572 7.7151 1.90336L2.183 11.4889Z" fill="white"/>
</svg>
