<svg width="22" height="23" viewBox="0 0 22 23" fill="none" xmlns="http://www.w3.org/2000/svg">
<path d="M20.4829 12.0129L20.4829 22.6335L22.0002 22.6335L22.0002 12.0129L20.4829 12.0129Z" fill="white"/>
<path d="M2.80566 14.2822L3.4137 14.8903L8.56701 9.73695L7.95897 9.12891C7.93849 9.15205 7.92218 9.17822 7.90018 9.2006L2.87735 14.2234C2.85535 14.2458 2.8288 14.2617 2.80566 14.2822Z" fill="white"/>
<path d="M13.5045 14.6744L12.8965 14.0664L7.74316 19.2197L8.3512 19.8278C8.37168 19.8046 8.38799 19.7784 8.40999 19.7561L13.4328 14.7332C13.4548 14.7109 13.481 14.6949 13.5045 14.6744Z" fill="white"/>
<path d="M7.36393 8.66432C7.50731 8.52094 7.58621 8.33053 7.58621 8.1276L7.58621 7.08184C7.58621 6.66346 7.24597 6.32322 6.82759 6.32322L5.78183 6.32322C5.57928 6.32322 5.38848 6.40211 5.2451 6.54549L0.222276 11.5683C0.0788964 11.7117 -8.77423e-08 11.9021 -7.88719e-08 12.105L-3.31604e-08 13.1508C-1.48724e-08 13.5692 0.340241 13.9094 0.758621 13.9094L1.80438 13.9094C2.00693 13.9094 2.19772 13.8305 2.3411 13.6871L7.36393 8.66432Z" fill="white"/>
<path d="M8.9464 20.2924C8.80302 20.4358 8.72412 20.6262 8.72412 20.8292L8.72412 21.8749C8.72412 22.2933 9.06436 22.6335 9.48274 22.6335L10.5285 22.6335C10.7311 22.6335 10.9218 22.5546 11.0652 22.4113L16.0881 17.3884C16.2314 17.2451 16.3103 17.0546 16.3103 16.8517L16.3103 15.806C16.3103 15.3876 15.9701 15.0473 15.5517 15.0473L14.5059 15.0473C14.3034 15.0473 14.1126 15.1262 13.9692 15.2696L8.9464 20.2924Z" fill="white"/>
<path d="M9.63987 9.73741L12.8965 12.994L13.8773 12.0132L10.6207 8.75656L9.63987 9.73741Z" fill="white"/>
<path d="M17.9851 1.39244L21.2417 4.64905L21.8433 4.04745L18.5867 0.790843L17.9851 1.39244Z" fill="white"/>
<path d="M11.7259 8.78885L13.8447 10.9077L20.1359 4.61657L18.017 2.49771L11.7259 8.78885Z" fill="white"/>
<path d="M3.95042 15.4269L7.20703 18.6835L12.3602 13.5303L9.10355 10.2737L3.95042 15.4269Z" fill="white"/>
<path d="M18.9653 13.9095L18.9653 20.737C18.9653 21.2309 19.2836 21.6481 19.724 21.8052L19.724 12.8417C19.2836 12.9983 18.9653 13.4156 18.9653 13.9095Z" fill="white"/>
</svg>
