<svg width="24" height="25" viewBox="0 0 24 25" fill="none" xmlns="http://www.w3.org/2000/svg">
<path d="M1 12.6255C1 14.5035 1.70708 16.2083 2.85448 17.3987C2.88229 17.4279 2.91562 17.4514 2.95257 17.4678C2.98951 17.4843 3.02934 17.4933 3.0698 17.4944C3.11026 17.4955 3.15054 17.4887 3.18834 17.4743C3.22615 17.46 3.26074 17.4384 3.29013 17.4107C3.31953 17.3831 3.34316 17.35 3.35967 17.3133C3.37618 17.2765 3.38526 17.237 3.38637 17.1968C3.38748 17.1566 3.38061 17.1165 3.36615 17.079C3.35169 17.0414 3.32993 17.0071 3.30211 16.9779C2.26966 15.9064 1.6075 14.3499 1.6075 12.6255C1.6075 10.8999 2.26636 9.36174 3.30211 8.28898C3.33511 8.26149 3.36191 8.22741 3.38079 8.18896C3.39967 8.15051 3.4102 8.10854 3.41169 8.06578C3.41318 8.02302 3.4056 7.98042 3.38944 7.94077C3.37328 7.90111 3.3489 7.86527 3.31789 7.83558C3.28688 7.8059 3.24994 7.78303 3.20945 7.76845C3.16896 7.75388 3.12585 7.74794 3.0829 7.751C3.03995 7.75407 2.99813 7.76608 2.96015 7.78625C2.92218 7.80643 2.8889 7.83431 2.86248 7.8681C1.71363 9.05778 0.999999 10.7456 1 12.6255ZM2.33489 12.7287C2.33489 14.1665 2.86727 15.4682 3.73375 16.3981C3.75965 16.4321 3.79243 16.4604 3.82999 16.481C3.86754 16.5016 3.90903 16.5142 3.95178 16.5179C3.99452 16.5216 4.03757 16.5164 4.07816 16.5026C4.11875 16.4887 4.15597 16.4666 4.18741 16.4376C4.21886 16.4086 4.24383 16.3733 4.26073 16.3341C4.27762 16.2949 4.28606 16.2527 4.28549 16.21C4.28492 16.1674 4.27536 16.1254 4.25743 16.0866C4.2395 16.0479 4.21359 16.0133 4.18139 15.9852C3.42402 15.1724 2.9504 14.0168 2.9504 12.7287C2.9504 11.3916 3.46837 10.2027 4.27731 9.38512C4.31029 9.35763 4.33709 9.32356 4.35596 9.2851C4.37483 9.24665 4.38534 9.20469 4.38683 9.16193C4.38831 9.11918 4.38071 9.0766 4.36455 9.03695C4.34839 8.9973 4.32402 8.96147 4.29301 8.93179C4.26201 8.90211 4.22506 8.87924 4.18459 8.86467C4.14411 8.8501 4.10099 8.84415 4.05805 8.84721C4.01511 8.85027 3.97329 8.86227 3.93532 8.88244C3.89735 8.9026 3.86407 8.93048 3.83765 8.96425C2.91236 9.89952 2.33489 11.2351 2.33489 12.7287ZM3.80568 12.7287C3.80568 13.7118 4.17932 14.6008 4.78091 15.2306C4.80872 15.2598 4.84205 15.2833 4.879 15.2997C4.91595 15.3161 4.95577 15.3251 4.99623 15.3262C5.03669 15.3274 5.07697 15.3205 5.11477 15.3062C5.15258 15.2918 5.18717 15.2702 5.21657 15.2426C5.24596 15.2149 5.26959 15.1818 5.2861 15.1451C5.30261 15.1084 5.31169 15.0688 5.3128 15.0286C5.31391 14.9884 5.30704 14.9484 5.29258 14.9108C5.27812 14.8733 5.25636 14.8389 5.22854 14.8097C4.73747 14.2956 4.42119 13.5583 4.42119 12.7287C4.42119 11.8509 4.77057 11.0745 5.30844 10.5606C5.34238 10.5343 5.37039 10.5012 5.39064 10.4635C5.41089 10.4258 5.42293 10.3843 5.42599 10.3416C5.42904 10.299 5.42304 10.2562 5.40838 10.216C5.39371 10.1758 5.37069 10.1391 5.34084 10.1083C5.31099 10.0776 5.27496 10.0533 5.23508 10.0373C5.19521 10.0212 5.15239 10.0137 5.10939 10.0151C5.06639 10.0166 5.02418 10.027 4.98549 10.0457C4.9468 10.0644 4.91249 10.091 4.88481 10.1237C4.21988 10.7591 3.80568 11.6905 3.80568 12.7287ZM5.78007 17.1764C5.78007 17.8145 6.25149 18.3757 6.87516 18.3757L8.68968 18.3757L8.68968 22.3468C8.68968 23.0358 9.19466 23.6335 9.86473 23.6335L18.9692 23.6335C19.6392 23.6335 20.1523 23.0358 20.1523 22.3468L20.1523 19.6307L21.3673 19.6307C21.9932 19.6307 22.4704 19.0634 22.4704 18.4235L22.4704 6.84362C22.4704 6.20342 21.9931 5.63641 21.3673 5.63641L20.1523 5.63641L20.1523 2.92031C20.1523 2.23131 19.6392 1.63354 18.9692 1.63354L9.86473 1.63354C9.19469 1.63354 8.68968 2.23131 8.68968 2.92031L8.68175 6.89115L6.8752 6.89115C6.24811 6.89115 5.78012 7.45206 5.78012 8.09048L5.78007 17.1764ZM6.39555 17.1764L6.39555 8.09048C6.39555 7.73467 6.6273 7.50289 6.87516 7.50289L8.68968 7.50289L8.68968 17.7642L6.87516 17.7642C6.62382 17.7642 6.39555 17.5317 6.39555 17.1764ZM10.6561 7.34404C10.6561 7.08049 10.8387 6.88327 11.0717 6.88327C11.3047 6.88327 11.4874 7.08049 11.4874 7.34404C11.4874 7.60734 11.3047 7.8127 11.0717 7.8127C10.8387 7.8127 10.6561 7.60734 10.6561 7.34404ZM10.6561 4.6038C10.6561 4.34024 10.8387 4.1354 11.0717 4.1354C11.3047 4.1354 11.4874 4.3405 11.4874 4.6038C11.4874 4.86735 11.3047 5.07245 11.0717 5.07245C10.8387 5.07245 10.6561 4.8671 10.6561 4.6038ZM13.9014 18.4235L13.9014 6.84362C13.9014 6.4901 14.1398 6.24789 14.389 6.24789L19.8165 6.24789L21.3673 6.24789C21.6164 6.24789 21.8549 6.48984 21.8549 6.84362L21.8549 18.4235C21.8549 18.777 21.6163 19.0189 21.3673 19.0189L19.7846 19.0189L14.389 19.0189C14.1399 19.0189 13.9014 18.777 13.9014 18.4235ZM15.1643 17.0096C15.168 17.0498 15.1796 17.0888 15.1985 17.1245C15.2173 17.1603 15.2431 17.1919 15.2743 17.2177C15.3055 17.2435 15.3414 17.263 15.3802 17.275C15.4189 17.287 15.4597 17.2913 15.5001 17.2876C15.5405 17.284 15.5798 17.2724 15.6158 17.2537C15.6517 17.235 15.6836 17.2094 15.7096 17.1784C15.7355 17.1474 15.7551 17.1116 15.7672 17.0731C15.7792 17.0346 15.7835 16.9941 15.7799 16.954L15.7799 8.31286C15.7799 8.23177 15.7474 8.15399 15.6897 8.09664C15.632 8.0393 15.5537 8.00708 15.4721 8.00708C15.3905 8.00708 15.3122 8.0393 15.2545 8.09664C15.1968 8.15399 15.1643 8.23177 15.1643 8.31286L15.1643 16.954C15.1638 16.9646 15.1638 16.9752 15.1643 16.9857C15.1641 16.9934 15.1641 17.001 15.1643 17.0086L15.1643 17.0096ZM17.5704 17.0096C17.5741 17.0498 17.5856 17.0888 17.6045 17.1245C17.6234 17.1602 17.6491 17.1919 17.6803 17.2177C17.7115 17.2435 17.7475 17.263 17.7862 17.275C17.825 17.287 17.8657 17.2913 17.9061 17.2876C17.9466 17.284 17.9859 17.2724 18.0218 17.2537C18.0577 17.2349 18.0896 17.2093 18.1156 17.1784C18.1415 17.1474 18.1611 17.1116 18.1732 17.0731C18.1852 17.0346 18.1896 16.9941 18.1859 16.954L18.1859 8.31286C18.1859 8.23177 18.1534 8.154 18.0957 8.09665C18.038 8.03931 17.9597 8.0071 17.8781 8.0071C17.7965 8.0071 17.7182 8.03931 17.6605 8.09665C17.6028 8.154 17.5704 8.23177 17.5704 8.31286L17.5704 16.954C17.5698 16.9646 17.5698 16.9752 17.5704 16.9857C17.5701 16.9934 17.5701 17.001 17.5704 17.0086L17.5704 17.0096ZM19.9764 17.0096C19.9801 17.0498 19.9917 17.0888 20.0105 17.1245C20.0294 17.1602 20.0551 17.1919 20.0863 17.2177C20.1175 17.2435 20.1535 17.263 20.1922 17.275C20.231 17.287 20.2717 17.2913 20.3122 17.2876C20.3526 17.284 20.3919 17.2724 20.4278 17.2537C20.4637 17.2349 20.4956 17.2093 20.5216 17.1784C20.5476 17.1474 20.5671 17.1116 20.5792 17.0731C20.5913 17.0346 20.5956 16.9941 20.5919 16.954L20.5919 8.31286C20.5919 8.23177 20.5595 8.154 20.5018 8.09665C20.444 8.03931 20.3658 8.0071 20.2842 8.0071C20.2025 8.0071 20.1242 8.03931 20.0665 8.09665C20.0088 8.154 19.9764 8.23177 19.9764 8.31286L19.9764 16.954C19.9758 16.9646 19.9758 16.9752 19.9764 16.9857C19.9761 16.9934 19.9761 17.001 19.9764 17.0086L19.9764 17.0096Z" fill="white"/>
</svg>
