<svg width="35" height="34" viewBox="0 0 35 34" fill="none" xmlns="http://www.w3.org/2000/svg">
<path d="M20.8182 16.4393C21.1497 16.7707 21.702 16.7707 22.0334 16.4393L23.2854 15.1873C22.4017 14.2299 21.8861 12.9779 21.8861 11.6154C21.8861 8.7063 24.2429 6.34957 27.1519 6.34957C28.4408 6.34957 29.6191 6.82828 30.5397 7.60158C31.5708 5.64992 31.2394 3.18272 29.6191 1.52565C28.6249 0.531403 27.2624 0.0158691 25.9368 0.0158691C24.6111 0.0158691 23.2854 0.531403 22.2544 1.52565L21.4074 2.3726L20.5605 1.52565C19.5662 0.531403 18.2037 0.0158691 16.8781 0.0158691C15.5156 0.0158691 14.1531 0.531403 13.1221 1.63612C11.1704 3.69826 11.2809 6.93876 13.3062 8.96407L20.8182 16.4393Z" fill="white"/>
<path d="M27.1886 7.60156C24.9792 7.60156 23.1748 9.40593 23.1748 11.6154C23.1748 13.8248 24.9792 15.6292 27.1886 15.6292C29.398 15.6292 31.2024 13.8248 31.2024 11.6154C31.2024 9.40593 29.398 7.60156 27.1886 7.60156ZM29.398 12.2782H27.8514V13.8248H26.5258V12.2782H24.9792V10.9525H26.5258V9.40593H27.8514V10.9525H29.398V12.2782Z" fill="white"/>
<path d="M31.7919 22.4785C30.8344 22.8099 29.251 23.1782 27.5203 23.5096C26.8943 24.5038 25.7527 25.3139 23.9852 25.5717C23.5801 25.6453 23.1014 25.6822 22.6227 25.6822C21.4075 25.6822 19.9714 25.5349 18.388 25.3508C18.2775 25.3508 18.1302 25.3139 18.0197 25.3139C17.6147 25.2771 17.3201 24.9089 17.3201 24.5038C17.3569 24.0619 17.7251 23.7305 18.2038 23.7673C18.3143 23.7673 18.4616 23.8042 18.5721 23.8042C20.6342 24.0251 22.5491 24.246 23.7643 24.0619C26.0473 23.6937 26.7102 22.3312 26.5997 21.1897C26.4892 20.2322 25.8264 19.3116 24.7217 19.3485C23.1382 19.4221 21.2602 19.238 19.4559 19.0539C17.3937 18.8329 15.2211 18.6488 13.7113 18.8698C12.8644 18.9802 11.4283 19.5326 9.88165 20.1586C9.55024 20.3059 9.182 20.4532 8.85059 20.6005V30.6166C11.9438 31.7213 15.6998 32.8997 17.9461 33.0838C22.4386 33.452 31.2763 28.3335 33.7803 26.7132C36.2844 25.0562 34.5905 21.5211 31.7919 22.4785Z" fill="white"/>
<path d="M6.23593 18.7959H1.04376C0.454582 18.7959 0.0126953 19.2746 0.0126953 19.827V31.2424C0.0126953 31.8315 0.491406 32.2734 1.04376 32.2734H6.23593C6.82511 32.2734 7.267 31.7947 7.267 31.2424V19.827C7.267 19.2378 6.82511 18.7959 6.23593 18.7959Z" fill="white"/>
</svg>
